<svg width="806" height="798" viewBox="0 0 806 798" fill="none" xmlns="http://www.w3.org/2000/svg">
<path d="M1062.93 797.681V536.6L956.195 525.552L900.291 528.982V334.308L796.829 316.68L779.14 318.634V303.717C780.621 303.083 781.875 302.015 782.737 300.656C783.599 299.296 784.03 297.708 783.971 296.099C784.072 294.685 783.682 293.278 782.868 292.117C782.054 290.955 780.864 290.108 779.499 289.718H778.581H778.182H777.183C775.443 290.163 773.917 291.207 772.872 292.667C771.828 294.126 771.332 295.906 771.473 297.695C771.321 299.149 771.698 300.609 772.533 301.81C773.369 303.01 774.608 303.871 776.025 304.236H776.944H777.782V318.793L759.773 320.748V310.338C760.686 309.842 761.443 309.101 761.958 308.199C762.472 307.298 762.725 306.27 762.688 305.233C762.757 304.278 762.514 303.326 761.996 302.521C761.477 301.716 760.711 301.1 759.813 300.766V296.777C761.684 295.983 763.268 294.637 764.353 292.92C765.438 291.202 765.971 289.194 765.883 287.165C765.961 285.401 765.45 283.66 764.431 282.217C763.412 280.773 761.943 279.708 760.252 279.189H760.013H758.855H758.336H757.178C755.003 279.757 753.094 281.062 751.775 282.881C750.457 284.699 749.812 286.919 749.95 289.16C749.797 291.004 750.291 292.845 751.347 294.365C752.404 295.886 753.957 296.993 755.74 297.495H756.898H758.136V300.846H757.537C756.343 301.157 755.292 301.87 754.565 302.866C753.837 303.862 753.476 305.079 753.544 306.31C753.427 307.332 753.686 308.361 754.274 309.205C754.862 310.05 755.739 310.651 756.738 310.896H757.377H758.136V320.828L731.861 323.699V187.455L686.979 178.043L680.59 178.96L679.711 178.721V173.735C679.736 173.671 679.736 173.6 679.711 173.536L673.482 172.22V156.266L640.059 149.007V138.199L615.581 132.734L591.104 136.723V137.959L588.907 137.481V55.1998H588.708H585.593V136.643L556.922 130.381L518.668 136.603L479.216 128.188V86.07L429.023 74.6632V35.8959H426.707V36.0953V74.0649L425.109 73.6661L417.882 74.9823V0.199707H414.368C414.368 0.199707 414.368 0.199707 414.368 0.399127V75.5008L364.454 84.1556V80.8054L341.174 75.6603L309.948 81.2441V94.1266L275.168 100.388V295.142L196.583 283.177L188.597 284.294V270.334C189.963 269.516 191.079 268.34 191.825 266.934C192.571 265.529 192.918 263.946 192.83 262.357C193.009 260.935 192.715 259.493 191.993 258.254C191.272 257.014 190.163 256.046 188.836 255.497H187.998H187.239H186.68C184.964 256.076 183.495 257.22 182.516 258.742C181.536 260.264 181.104 262.073 181.289 263.873C181.289 267.582 183.206 270.653 185.602 270.933H186.441H187.439V284.812L169.789 287.245V277.314C170.627 276.697 171.299 275.882 171.744 274.943C172.19 274.003 172.397 272.968 172.345 271.93C172.437 270.98 172.243 270.025 171.788 269.186C171.332 268.348 170.636 267.664 169.789 267.223V263.474C171.694 262.474 173.267 260.943 174.316 259.066C175.365 257.19 175.846 255.049 175.699 252.905C175.898 251.053 175.482 249.187 174.515 247.595C173.548 246.002 172.084 244.771 170.348 244.091H169.27H167.553C165.374 244.882 163.519 246.372 162.277 248.327C161.034 250.282 160.475 252.593 160.685 254.899C160.685 259.685 163.121 263.594 166.195 263.953H167.274H168.511V266.984H167.992C166.799 267.412 165.783 268.225 165.104 269.293C164.424 270.362 164.12 271.626 164.239 272.887C164.239 275.479 165.557 277.633 167.234 277.833H167.833H168.511V287.165L133.492 291.991V338.416L122.511 336.941L113.087 338.137V339.015L101.826 340.411V326.611C103.157 325.772 104.233 324.585 104.937 323.179C105.641 321.772 105.946 320.201 105.819 318.634C105.969 317.236 105.66 315.827 104.94 314.619C104.22 313.411 103.128 312.469 101.826 311.933H101.028H98.3123C96.6966 312.523 95.3146 313.618 94.3721 315.055C93.4296 316.492 92.9769 318.195 93.0813 319.91C93.0813 323.54 94.9581 326.491 97.0744 326.77H97.873H98.9113V340.411L60.4575 345.157V334.029C61.2561 333.75 61.6155 333.431 61.6554 333.072V290.835C61.6554 290.037 59.7387 289.359 55.9852 288.761C51.7566 288.112 47.4854 287.778 43.2072 287.764C34.9414 287.764 27.9135 288.561 26.5958 289.917C26.511 289.975 26.4413 290.052 26.3926 290.142C26.3439 290.233 26.3178 290.333 26.3163 290.436V332.673C26.3163 333.192 27.075 333.63 28.5924 334.029V349.464L-2.11475 353.453L-5.50888 352.894L-14.2538 353.971V514.504L-82.5762 509.2L-214.629 520.208H-214.828V797.681H-301V798.04H1139V797.681H1062.93ZM-82.7758 797.681H-214.549V520.607L-82.7758 509.599V797.681ZM-14.4136 797.681H-82.2966V509.599L-14.4136 514.863V797.681ZM-5.50888 797.681H-14.0142V354.33L-5.50888 353.293V797.681ZM98.3123 326.451C98.0879 326.492 97.8579 326.492 97.6335 326.451H97.0345C95.8525 325.879 94.8786 324.953 94.2487 323.802C93.6188 322.651 93.3643 321.332 93.5206 320.03C93.3305 318.349 93.7061 316.652 94.5882 315.208C95.4702 313.763 96.8086 312.654 98.3922 312.053H99.2307H99.5901C100.789 312.58 101.787 313.476 102.441 314.609C103.095 315.742 103.369 317.055 103.224 318.355C103.447 320.061 103.082 321.792 102.19 323.263C101.297 324.735 99.9296 325.859 98.3123 326.451ZM98.7915 326.73C100.308 326.042 101.58 324.912 102.443 323.488C103.305 322.065 103.716 320.415 103.623 318.754C103.673 317.632 103.474 316.514 103.039 315.48C102.604 314.445 101.944 313.52 101.107 312.771C102.168 313.387 103.032 314.291 103.598 315.379C104.163 316.466 104.408 317.692 104.302 318.913C104.482 320.598 104.098 322.295 103.209 323.739C102.32 325.182 100.977 326.29 99.3904 326.89L98.7915 326.73ZM100.229 326.73V340.53H99.5103V327.049L100.229 326.73ZM26.7955 290.436C26.7681 290.358 26.7681 290.274 26.7955 290.197C27.9135 289.12 34.3026 288.043 43.1673 288.162C47.4172 288.183 51.6605 288.503 55.8654 289.12C60.0981 289.798 61.2162 290.516 61.2162 290.835V332.514C59.4193 331.157 51.5129 330.479 44.0857 330.4C38.2262 329.905 32.3255 330.486 26.6757 332.115L26.7955 290.436ZM26.7955 332.673C27.8736 331.596 35.3008 330.838 44.0458 330.918C55.2265 330.918 61.1763 332.354 61.2162 333.231C61.2162 333.231 61.2162 333.551 60.4176 333.79V333.032H58.8203L57.9418 334.388C55.0047 334.805 52.0435 335.031 49.0771 335.066L46.9608 331.955V331.038H45.8826V335.026H44.5649C40.3191 335.005 36.0785 334.725 31.8667 334.189L30.4292 333.192H28.8719V333.511C26.9951 333.192 26.7955 332.793 26.7955 332.673ZM60.178 333.192V345.516H59.4193V333.192H60.178ZM53.4296 343.96L54.4279 345.396L52.3914 345.635L53.4296 343.96ZM51.9122 345.675H51.0338L52.7907 343.003L53.19 343.561L51.9122 345.675ZM46.7611 333.71V332.593L55.4262 345.356H54.8671L46.7611 333.71ZM47.2403 335.066H46.7611V334.348L47.2403 335.066ZM49.117 335.385C51.9082 335.348 54.6948 335.148 57.4626 334.787L53.4695 341.487L49.117 335.385ZM53.5095 341.846L58.8603 333.271V334.388L53.749 342.365L53.5095 341.846ZM46.4017 331.397V347.35H45.683V331.397H46.4017ZM45.3236 335.385V347.35L43.9659 347.55V335.345H45.3236V335.385ZM43.6065 335.385V347.669H42.8478V335.305L43.6065 335.385ZM36.4588 343.362L36.7783 343.801L32.4258 349.026H31.5872L36.4588 343.362ZM31.0681 349.225H30.2695V335.026L36.2192 343.003L31.0681 349.225ZM37.0179 344.12L39.9728 348.108L33.0247 348.986L37.0179 344.12ZM30.4292 334.268V333.511L41.011 347.949H40.452L30.4292 334.268ZM37.8564 343.003L42.4086 337.539V347.749H41.3704L37.8564 343.003ZM37.6169 343.003L37.2574 342.485L42.4086 336.063V336.941L37.6169 343.003ZM37.0179 342.165L31.5872 334.747C35.174 335.24 38.7883 335.506 42.4086 335.545L37.0179 342.165ZM29.6705 333.71V333.949V333.71ZM29.6705 334.587V349.544H28.9118V333.59L29.6705 334.587ZM-2.27448 744.436V797.681H-5.30923V353.293L-2.23453 353.692V377.144L-0.277924 377.503V411.564L-2.27448 411.803V443.072H-2.03485L-0.277924 443.431V477.572L-2.11475 477.771V509.678L-0.31781 509.918V544.138H-2.19458V575.168L-0.277924 575.487V609.668H-2.11475V641.017L-0.198029 641.375V675.676H-2.11475V707.144H-0.0782471V741.804H-1.99496L-2.23453 744.237L-2.27448 744.436ZM-0.237976 510.476L21.7641 508.681L-0.0382996 510.476H-0.237976ZM-0.517487 576.524L47.4 573.533L0.0415344 576.644L-0.517487 576.524ZM47.4 797.841H-1.83524V744.396L47.5198 743.638L47.4 797.841ZM47.4 742.362H43.0874V722.978H47.5198L47.4 742.362ZM47.4 722.42L0.920044 723.457V722.579L47.4 721.503V722.42ZM42.6082 722.898V742.322H42.4086V722.898H42.6082ZM41.6898 722.898V742.322H41.4103V722.938L41.6898 722.898ZM41.0509 722.898V742.282H32.7053V722.938L41.0509 722.898ZM32.306 722.898V742.242H31.8268V722.898H32.306ZM31.4674 722.898V742.242H31.148V723.098L31.4674 722.898ZM30.7487 722.898V742.202H22.403V722.938L30.7487 722.898ZM22.0437 722.898V742.162H21.6044V722.898H22.0437ZM21.245 722.898V742.202H20.8857V722.898H21.245ZM20.5262 722.898V742.162H12.2605V723.497L20.5262 722.898ZM11.9011 722.898V742.083H11.4619V722.859L11.9011 722.898ZM11.0626 722.898V742.123H10.7032V722.898H11.0626ZM10.3438 722.898V742.123H1.83844V722.938L10.3438 722.898ZM1.43912 723.138V742.282H0.920044V723.138H1.43912ZM0.920044 721.503V710.016H1.43912V721.503H0.920044ZM1.83844 721.503V710.056L10.3838 709.856V721.901L1.83844 721.503ZM10.8629 721.901V710.415H11.1824V721.901H10.8629ZM11.5817 721.901V710.455H11.981V721.901H11.5817ZM12.3404 721.901V710.415L20.6061 710.215V721.702L12.3404 721.901ZM21.0054 721.702V710.215H21.3249V721.702H21.0054ZM21.7242 721.702V710.255H22.1635V721.702H21.7242ZM22.5228 721.702V710.215L30.8685 710.016V721.503L22.5228 721.702ZM31.2678 721.503V709.936H31.5473V721.423L31.2678 721.503ZM31.9466 721.503V709.936H32.4258V721.423L31.9466 721.503ZM32.8251 721.503V709.936L41.1707 709.737V721.223L32.8251 721.503ZM41.57 721.263V709.817H41.8096V721.263H41.57ZM42.2089 721.263V709.777H42.728V721.263H42.2089ZM47.5198 721.263H43.0874V709.777H47.5198V721.263ZM47.5198 709.298L0.840149 710.415V743.04L47.5198 742.242V742.96L0.281128 743.718V709.019L47.5198 707.782V709.298ZM47.5198 707.822L-1.83524 709.099V678.029L47.5198 676.314V707.822ZM47.5198 675.038H43.0874V655.734H47.5198V675.038ZM47.5198 655.335L1.03983 657.09V656.292L47.5198 654.099V655.335ZM42.728 655.933V675.197H42.4086V655.933H42.728ZM41.8495 655.933V675.237H41.57V655.973L41.8495 655.933ZM41.1707 655.933V675.197L32.8251 675.476V656.252L41.1707 655.933ZM32.4258 656.252V675.516H31.9466V656.292L32.4258 656.252ZM31.5872 656.252V675.476H31.3077V656.212L31.5872 656.252ZM30.9084 656.252V675.476L22.5627 675.756V656.531L30.9084 656.252ZM22.2034 656.571V675.795H21.7641V656.571H22.2034ZM21.3648 656.571V675.756H21.0454V656.531L21.3648 656.571ZM20.686 656.571V675.795L12.4202 676.075V656.89L20.686 656.571ZM12.0209 656.89V676.075H11.5817V656.89H12.0209ZM11.2223 656.89V676.075H10.8629V656.89H11.2223ZM10.4636 656.89V676.075L1.87839 676.354V657.209L10.4636 656.89ZM1.51901 657.209V676.354H1.03983V657.17L1.51901 657.209ZM1.03983 655.694V644.088H1.51901V655.654L1.03983 655.694ZM1.87839 655.694V644.088L10.4636 643.689V655.335L1.87839 655.694ZM10.823 655.295V643.689H11.2223V655.295H10.823ZM11.5817 655.295V643.729H12.0209V655.335L11.5817 655.295ZM12.3803 655.295V643.649L20.686 643.29V654.936L12.3803 655.295ZM21.0454 654.896V643.25H21.3249V654.896H21.0454ZM21.7242 654.896V643.21H22.2034V654.856L21.7242 654.896ZM22.5627 654.896V643.21L30.9084 642.851V654.537L22.5627 654.896ZM31.3077 654.497V642.811H31.5473V654.497H31.3077ZM31.9466 654.497V642.811H32.4258V654.497H31.9466ZM32.8251 654.497V642.811L41.2106 642.413V654.099L32.8251 654.497ZM41.57 654.099V642.413H41.8495V654.099H41.57ZM42.2488 654.099V642.373H42.6482V654.099H42.2488ZM47.5198 653.859H43.0076V642.133H47.5198V653.859ZM47.5198 641.894L0.840149 644.048V676.713L47.4798 675.078V675.556L0.241211 677.231V642.931L47.4798 640.777L47.5198 641.894ZM47.5198 640.817L0.0814819 642.971H-0.357758L47.5597 640.817H47.5198ZM47.5198 640.378L-1.79529 642.572V611.423L47.5198 608.83V640.378ZM47.5198 607.793L43.0874 608.032V588.808L47.5198 588.569V607.793ZM47.5198 588.17L1.03983 590.842V589.885L47.5198 587.173V588.17ZM42.728 588.848V608.072H42.4086V588.808L42.728 588.848ZM41.8495 588.848V608.072H41.5301V588.689L41.8495 588.848ZM41.1707 588.848V608.072L32.8251 608.551V589.327L41.1707 588.848ZM32.4258 589.327V608.551H31.9466V589.327H32.4258ZM31.5473 589.327V608.511H31.2278V589.287L31.5473 589.327ZM30.8285 589.327V608.511L22.5627 608.99V589.766L30.8285 589.327ZM22.1635 589.805V608.99H21.7641V589.805H22.1635ZM21.3648 589.805V608.99H21.0454V589.885L21.3648 589.805ZM20.686 589.805V608.99L12.4202 609.428V590.284L20.686 589.805ZM12.0609 590.284V609.468H11.5817V590.284H12.0609ZM11.2223 590.284V609.428H10.8629V590.284H11.2223ZM10.4636 590.284V609.428L1.9183 609.907V590.763L10.4636 590.284ZM1.55893 590.763V610.226H1.03983V591.082L1.55893 590.763ZM1.03983 589.088V577.92H1.55893V589.287L1.03983 589.088ZM1.9183 589.088V577.681L10.4636 577.162V588.569L1.9183 589.088ZM10.823 588.569V577.122H11.2223V588.569H10.823ZM11.5817 588.569V577.122H11.981V588.569H11.5817ZM12.3803 588.569V577.122L20.6461 576.564V588.09L12.3803 588.569ZM21.0454 588.051V576.524H21.3648V588.051H21.0454ZM21.7641 588.051V576.524H22.1635V588.011L21.7641 588.051ZM22.5627 588.051V576.524L30.8685 575.966V587.572L22.5627 588.051ZM31.2678 587.532V575.966H31.5473V587.572L31.2678 587.532ZM31.9466 587.532V575.966H32.4258V587.572L31.9466 587.532ZM32.8251 587.532V575.926L41.1707 575.407V587.053L32.8251 587.532ZM41.5301 587.014V575.367H41.8895V587.053L41.5301 587.014ZM42.2488 587.014V575.367H42.6482V587.053L42.2488 587.014ZM47.5198 586.734L43.0475 586.974V575.328L47.5198 575.008V586.734ZM47.5198 574.769L0.840149 577.8V610.226L47.5198 607.674V608.112L0.201263 610.625V576.484L47.5198 573.413V574.769ZM47.5198 573.174L-1.87515 576.285V545.614L47.5198 542.064V573.174ZM47.5198 540.668L43.0874 540.987V521.684L47.5198 521.364V540.668ZM47.5198 521.005L1.03983 524.436V523.518L47.5198 520.208V521.005ZM42.6881 521.723V541.027H42.4086V521.723H42.6881ZM41.9294 521.723V540.987H41.57V521.684L41.9294 521.723ZM41.1707 521.723V541.027L32.8251 541.626V522.362L41.1707 521.723ZM32.4258 522.362V541.665H31.9466V522.481L32.4258 522.362ZM31.5473 522.362V541.626H31.2678V522.481L31.5473 522.362ZM30.8685 522.362V541.665L22.443 542.423V523.159L30.8685 522.362ZM22.1635 523V542.423H21.7641V523.159L22.1635 523ZM21.3648 523V542.423H21.0454V523.159L21.3648 523ZM20.686 523V542.423L12.4602 543.021V523.758L20.686 523ZM12.0609 523.638V542.902H11.5817V523.638H12.0609ZM11.1824 523.638V542.862H10.823V523.598L11.1824 523.638ZM10.4236 523.638V542.902L1.9183 543.5V524.276L10.4236 523.638ZM1.55893 524.316V543.54H1.03983V524.316H1.55893ZM1.03983 522.681V511.274H1.55893V522.681H1.03983ZM1.9183 522.681V511.274L10.5035 510.596V522.082L1.9183 522.681ZM10.8629 522.042V510.556H11.1824V522.042H10.8629ZM11.5817 522.042V510.516H12.0609V522.042H11.5817ZM12.4602 522.042V510.516L20.4464 509.838V521.404L12.4602 522.042ZM21.0054 521.444V509.838H21.3648V521.444H21.0054ZM21.7641 521.444V509.878H22.1635V521.484L21.7641 521.444ZM22.5627 521.444V509.838L30.8685 509.16V520.846L22.5627 521.444ZM31.2678 520.806V509.16H31.5473V520.846L31.2678 520.806ZM31.9466 520.806V509.12H32.4258V520.806H31.9466ZM32.8251 520.806V508.921L41.1707 508.283V520.008L32.8251 520.806ZM41.5301 520.208V508.442H41.8895V520.407L41.5301 520.208ZM42.2488 520.208V508.243H42.6881V520.208H42.2488ZM47.5198 519.849L43.0874 520.168V508.123L47.5198 507.764V519.849ZM47.5198 507.644L0.840149 511.393V544.098L47.4798 540.708V541.306L0.161346 544.737V510.516L47.4798 506.528L47.5198 507.644ZM47.5198 506.288L-1.79529 510.277V478.609L47.5198 474.142V506.288ZM47.5198 473.464L43.1273 473.863V454.519L47.5198 454.08V473.464ZM47.5198 453.522L1.07977 457.869V457.071L24.3197 454.918L40.2922 453.402L45.6031 452.923H47.0805H47.4L47.5198 453.522ZM42.728 454.359V473.663H42.2488V454.319L42.728 454.359ZM41.8495 454.359V473.703H41.5301V454.399L41.8495 454.359ZM41.1308 454.359V473.663L32.7852 474.421V455.117L41.1308 454.359ZM32.4258 455.157V474.62H31.9466V455.316L32.4258 455.157ZM31.5872 455.157V474.62H31.3477V455.356L31.5872 455.157ZM30.9483 455.157V474.62L22.443 475.418V456.154L30.9483 455.157ZM22.2034 455.955V475.219H21.7242V455.955H22.2034ZM21.3648 455.955V475.219H20.9655V455.955H21.3648ZM20.6061 455.955V475.179L12.4202 475.937V456.712L20.6061 455.955ZM12.0209 456.752V475.976H11.5417V456.752H12.0209ZM11.1424 456.752V475.976H10.8629V456.792L11.1424 456.752ZM10.5035 456.752V475.937L1.07977 476.814V457.63L10.5035 456.752ZM1.07977 456.034V444.468H1.55893V456.034H1.07977ZM1.9183 456.034V444.468L10.5035 443.63V455.237L1.9183 456.034ZM10.8629 455.197V443.591H11.1824V455.237L10.8629 455.197ZM11.5817 455.197V443.551H12.0209V455.197H11.5817ZM12.4202 455.197V443.91L20.6061 443.112V454.678L12.4202 455.197ZM20.9655 454.399V442.713H21.3648V454.678L20.9655 454.399ZM21.7242 454.399V442.713H22.1635V454.678L21.7242 454.399ZM22.5627 454.399V442.713L30.8685 441.915V453.641L22.5627 454.399ZM31.2678 453.601V441.876H31.5872V453.601H31.2678ZM31.9466 453.601V441.636H32.4258V453.362L31.9466 453.601ZM32.7852 453.601V441.636L41.2106 440.799V452.764L32.7852 453.601ZM41.57 452.764V440.799H41.8495V452.764H41.57ZM42.2488 452.764V440.799H42.6482V452.764H42.2488ZM47.5198 452.245L43.0475 452.684V440.719L47.5198 440.28V452.245ZM47.5198 440.041L0.880096 444.667V444.867V477.572L47.4798 473.344V473.623L0.161346 477.931V443.79L47.4798 439.084L47.5198 440.041ZM47.5198 438.884L0.0415344 443.591H-0.597351L47.3201 438.765L47.5198 438.884ZM47.5198 438.286L-1.83524 443.232V412.321L47.5198 406.817V438.286ZM47.5198 405.9L43.0475 406.379V387.115L47.5198 386.596V405.9ZM47.5198 385.958L1.03983 391.502V390.625L47.5198 385.559V385.958ZM42.6482 386.915V406.219H42.4086V387.195L42.6482 386.915ZM41.8495 386.915V406.259H41.4901V387.274L41.8495 386.915ZM41.1308 386.915V406.817L32.7452 407.735V388.271L41.1308 386.915ZM32.3858 387.912V407.216H31.9466V388.351L32.3858 387.912ZM31.5872 387.912V407.216H31.3077V388.431L31.5872 387.912ZM30.9084 387.912V407.216L22.5228 408.134V389.428L30.9084 387.912ZM22.1635 388.91V408.174H21.7242V389.548L22.1635 388.91ZM21.3249 388.91V408.134H20.9655V389.627L21.3249 388.91ZM20.5662 388.91V408.134L12.58 409.011V390.585L20.5662 388.91ZM12.0609 389.867V409.051H11.5417V390.864L12.0609 389.867ZM11.1824 389.867V409.051H10.823V390.864L11.1824 389.867ZM10.4636 390.864V410.048L1.9183 410.965V391.821L10.4636 390.864ZM1.51901 391.901V410.806H1.03983V391.662L1.51901 391.901ZM1.03983 390.266V378.899H1.51901V390.425L1.03983 390.266ZM1.9183 390.266V378.619L10.4636 377.582V389.229L1.9183 390.266ZM10.823 389.308V377.543H11.1824V389.189L10.823 389.308ZM11.5417 389.308V377.463H12.0609V389.109L11.5417 389.308ZM12.4202 389.308V377.343L20.6461 376.346V388.311L12.4202 389.308ZM21.0054 388.391V376.426H21.3249V388.391H21.0054ZM21.7242 388.391V376.426H22.2034V388.391H21.7242ZM22.5627 388.391V376.426L30.9084 375.429V387.394L22.5627 388.391ZM31.3077 386.875V374.91H31.5473V386.875H31.3077ZM31.9466 386.875V374.91H32.3459V386.875H31.9466ZM32.7452 386.875V374.91L41.2106 373.913V385.878L32.7452 386.875ZM41.57 385.918V373.953H41.8495V385.918H41.57ZM42.2488 385.918V373.953H42.728V385.918H42.2488ZM47.5198 385.32L43.0874 385.799V373.833L47.5198 373.315V385.32ZM47.5198 372.876L0.800262 378.54V411.245L47.4798 406.139V406.379L0.241211 411.524V377.702L47.4798 372.039L47.5198 372.876ZM47.5198 371.799L0.121429 377.343H-0.717163L47.5198 371.64V371.799ZM47.5198 371.281L-1.83524 376.944V353.692L47.5198 347.51V371.281ZM47.5198 346.513V346.991H46.7611V335.026H47.4798L52.5511 342.365L50.5546 345.516L47.6795 345.875L47.5198 346.353V346.513ZM56.664 797.681H47.9191V346.553L56.664 345.516V797.681ZM56.664 345.157H55.7057L53.9886 342.604L59.02 335.026V345.356L56.8637 345.117L56.664 345.157ZM59.9384 743.319V797.681H56.8637V345.516L59.8984 345.875V369.805L61.8152 370.164V404.863H59.8984V436.77L61.8551 437.169V471.908H59.9783V504.214H61.8551V539.113H59.9783V570.661H61.8551V605.639H60.0183V637.547L61.895 637.866V672.844H59.9783V704.991H61.8152V740.248H60.0183L60.0981 743.279L59.9384 743.319ZM111.729 797.681H60.4575V743.439L111.729 742.561V797.681ZM111.729 741.126H106.977V721.423H111.729V741.126ZM111.729 720.944L63.5322 721.901V720.944L111.729 719.867V720.944ZM106.578 721.463V741.405H106.299V721.463H106.578ZM105.779 721.463V741.405H105.5V721.463H105.779ZM105.101 721.463V741.165H96.3157V721.503L105.101 721.463ZM95.9164 721.662V741.325H95.5171V721.662H95.9164ZM95.1577 721.662V741.325H94.7584V721.901L95.1577 721.662ZM94.3192 721.901V741.524H85.7339V721.901H94.3192ZM85.3347 722.101V741.684H84.8555V721.901L85.3347 722.101ZM84.4562 722.101V741.644H84.1367V721.901L84.4562 722.101ZM83.7773 722.101V741.684H75.1921V722.181L83.7773 722.101ZM74.7928 722.3V741.843H74.3536V722.38L74.7928 722.3ZM73.9543 722.3V741.843H73.555V722.34L73.9543 722.3ZM73.1956 722.3V741.843H64.3308V722.46L73.1956 722.3ZM63.9315 722.54V741.843H63.4523V722.42L63.9315 722.54ZM63.4523 720.825V709.139H63.9315V720.825H63.4523ZM64.3308 720.825V709.099H73.1956V720.825H64.3308ZM73.5949 720.585V708.899H73.9543V720.625L73.5949 720.585ZM74.3536 720.585V708.74H74.7928V720.466L74.3536 720.585ZM75.1921 720.585V708.74L83.7773 708.5V720.466L75.1921 720.585ZM84.1367 720.585V708.62H84.4562V720.346L84.1367 720.585ZM84.8555 720.585V708.859H85.3347V720.585H84.8555ZM85.7339 720.585V708.62H94.3192V720.386L85.7339 720.585ZM94.6786 720.386V708.62H95.0779V720.386H94.6786ZM95.4373 720.386V708.421H95.8365V720.386H95.4373ZM96.2359 720.386V708.421H105.021V720.186L96.2359 720.386ZM105.42 720.186V708.221H105.7V720.186H105.42ZM106.099 720.186V708.221H106.498V720.186H106.099ZM111.649 720.186H106.898V708.221H111.649V720.186ZM111.649 707.982L63.2527 709.139C63.2352 709.169 63.226 709.203 63.226 709.238C63.226 709.273 63.2352 709.308 63.2527 709.338V741.843L111.649 741.086V741.843L62.3742 743.04V707.782L111.609 706.506L111.649 707.982ZM111.649 706.626L60.3377 707.982V676.075L111.649 674.28V706.626ZM111.649 673.163H106.937V653.421H111.649V673.163ZM111.649 653.022L63.4124 654.936V654.059L111.649 652.104V653.022ZM106.538 653.62V673.363H106.299V653.62H106.538ZM105.66 653.62V673.562H105.34V653.62H105.66ZM104.941 653.62V673.562L96.2758 673.881V654.178L104.941 653.62ZM95.9164 653.979V673.682H95.3973V654.019L95.9164 653.979ZM94.998 653.979V673.682H94.6786V654.019L94.998 653.979ZM94.2792 653.979V673.642L85.694 673.961V654.099L94.2792 653.979ZM85.3347 654.338V673.961H84.8156V654.099L85.3347 654.338ZM84.4162 654.338V673.961H84.0968V654.099L84.4162 654.338ZM83.7374 654.338V673.921L75.1522 674.24V654.657L83.7374 654.338ZM74.7529 654.657V674.041H74.3536V654.457L74.7529 654.657ZM73.9143 654.657V674.041H73.515V654.497L73.9143 654.657ZM73.1556 654.657V674.041L64.2909 674.32V654.816L73.1556 654.657ZM63.8916 655.016V674.559H63.4124V655.056L63.8916 655.016ZM63.4124 653.421V641.734H63.8916V653.381L63.4124 653.421ZM64.2909 653.421V641.734L73.1956 641.336V653.062L64.2909 653.421ZM73.555 653.022V641.296H73.9143V653.022H73.555ZM74.2737 653.022V641.336H74.7129V653.062L74.2737 653.022ZM75.1123 653.022V641.296L83.7374 640.897V652.663L75.1123 653.022ZM84.0968 652.663V640.698H84.4562V652.663H84.0968ZM84.8555 652.663V640.698H85.3347V652.463L84.8555 652.663ZM85.694 652.663V640.698L94.3192 640.299V652.264L85.694 652.663ZM94.7185 652.304V640.339H95.0779V652.304H94.7185ZM95.4772 652.304V640.339H95.8765V652.304H95.4772ZM96.2359 652.304V640.339L104.941 639.94V651.905L96.2359 652.304ZM105.34 651.945V639.98H105.66V651.945H105.34ZM106.059 651.945V639.98H106.538V651.945H106.059ZM111.649 651.705H106.937V639.74L111.649 639.501V651.705ZM111.649 639.421L63.2127 641.655V641.854V675.157L111.649 673.482V673.961L62.3742 675.277V640.299L111.569 638.145L111.649 639.421ZM111.649 638.304L62.3742 639.94L111.929 637.786L111.649 638.304ZM111.649 637.866L60.4176 640.099V608.631L111.649 605.919V637.866ZM111.649 604.842L106.898 605.081V585.139L111.649 584.86V604.842ZM111.649 584.621L63.4523 587.412V586.415L111.649 583.623V584.621ZM106.498 585.338V605.28H106.299V585.338H106.498ZM105.7 585.338V605.28H105.38V585.338H105.7ZM104.981 585.338V605.081L96.2758 605.52V585.817L104.981 585.338ZM95.8765 585.857V605.56H95.3973V585.897L95.8765 585.857ZM95.0379 585.857V605.56H94.6786V585.498L95.0379 585.857ZM94.3192 585.857V605.56L85.6541 605.998V586.375L94.3192 585.857ZM85.2548 586.375V605.998H84.8555V586.375H85.2548ZM84.4562 586.375V605.958H84.1766V586.296L84.4562 586.375ZM83.8173 586.375V605.998L75.1522 606.437V586.894L83.8173 586.375ZM74.7529 586.934V606.238H74.3536V586.695L74.7529 586.934ZM73.9543 586.934V606.238H73.555V586.695L73.9543 586.934ZM73.1956 586.934V606.238L64.2909 606.716V587.253L73.1956 586.934ZM63.9315 587.452V606.916H63.4523V587.452H63.9315ZM63.4523 585.697V574.091H63.9315V585.737L63.4523 585.697ZM64.2909 585.697V574.091L73.1956 573.533V585.179L64.2909 585.697ZM73.5949 585.179V573.493H73.9543V585.139L73.5949 585.179ZM74.3136 585.179V573.533H74.7529V585.219L74.3136 585.179ZM75.1522 585.179V573.533L83.7773 572.974V584.7L75.1522 585.179ZM84.1367 584.66V572.935H84.4961V584.66H84.1367ZM84.8555 584.66V572.935H85.2548V584.66H84.8555ZM85.6541 584.66V572.935L94.3192 571.937V583.903L85.6541 584.66ZM94.6786 584.142V571.937H95.0379V583.903L94.6786 584.142ZM95.3973 584.142V572.177H95.9164V584.142H95.3973ZM96.2758 584.142V572.177L104.981 571.658V583.623L96.2758 584.142ZM105.38 583.623V571.658H105.7V583.623H105.38ZM106.099 583.623V571.658H106.498V583.623H106.099ZM111.649 583.304L106.898 583.584V571.618L111.649 571.299V583.304ZM111.649 571.02L63.2527 574.091V607.315L111.609 604.842V605.161L62.3742 607.594V572.695L111.609 569.624L111.649 571.02ZM111.649 569.425L60.3776 572.655V541.506L111.649 537.837V569.425ZM62.1346 505.61L74.9925 504.533L62.2544 505.61H62.1346ZM111.649 536.281L106.937 536.64V516.499L111.649 516.14V536.281ZM111.649 516.339L63.4523 519.969V518.493L111.649 515.063V516.339ZM106.578 517.097V536.8H106.299V517.097H106.578ZM105.66 517.097V536.8H105.3V517.097H105.66ZM104.941 517.097V536.8L96.2758 537.398V517.296L104.941 517.097ZM95.8765 517.775V537.438H95.5171V517.775H95.8765ZM95.0779 517.775V537.398H94.7185V517.775H95.0779ZM94.3192 517.775V537.438L85.694 538.036V518.094L94.3192 517.775ZM85.3347 518.453V538.076H84.8555V518.453H85.3347ZM84.4562 518.453V538.036H84.0968V518.453H84.4562ZM83.7374 518.453V538.076L75.1522 538.674V519.131L83.7374 518.453ZM74.7529 519.131V538.435H74.3536V518.892L74.7529 519.131ZM73.9143 519.131V538.435H73.555V518.932L73.9143 519.131ZM73.1956 519.131V538.435L64.2909 539.073V519.689L73.1956 519.131ZM63.8916 519.849V539.312H63.4523V519.849H63.8916ZM63.4523 518.214V506.248H63.8916V518.014L63.4523 518.214ZM64.2909 518.214V506.448L73.2355 505.73V517.695L64.2909 518.214ZM73.6348 517.576V505.61H73.9543V517.576H73.6348ZM74.3536 517.576V505.61H74.7129V517.576H74.3536ZM75.1123 517.576V505.61L83.6974 504.932V516.897L75.1123 517.576ZM84.0968 516.937V504.972H84.4562V516.937H84.0968ZM84.8555 516.937V504.972H85.2947V516.937H84.8555ZM85.694 516.937V504.972L94.3192 504.334V516.299L85.694 516.937ZM94.7185 516.299V504.334H95.0779V516.299H94.7185ZM95.4772 516.299V504.334H95.8765V516.299H95.4772ZM96.2758 516.299V504.334L104.941 503.656V515.621L96.2758 516.299ZM105.34 515.661V503.696H105.66V515.661H105.34ZM106.019 515.661V503.696H106.538V515.661H106.019ZM111.649 515.262L106.898 515.621V503.656L111.649 503.297V515.262ZM111.649 502.818L63.2527 506.567C63.2352 506.598 63.226 506.632 63.226 506.667C63.226 506.702 63.2352 506.737 63.2527 506.767V540.07L111.649 536.68V537.318L62.3742 540.389V505.53L111.569 501.542L111.649 502.818ZM111.649 501.343L60.4575 504.932V473.025L111.729 468.438L111.649 501.343ZM111.649 468L106.898 468.438V448.855L111.649 448.417V468ZM111.649 448.058L63.4923 451.886V450.969L111.729 446.702L111.649 448.058ZM106.538 448.935V468.518H106.299V448.297L106.538 448.935ZM105.7 448.935V468.518H105.26V448.935H105.7ZM104.901 448.935V468.518L96.2359 469.276V449.733L104.901 448.935ZM95.8765 449.773V469.316H95.3973V449.773H95.8765ZM95.0379 449.773V469.316H94.6786V449.812L95.0379 449.773ZM94.2792 449.773V469.316L85.694 470.113V450.61L94.2792 449.773ZM85.2947 450.65V470.113H84.8555V450.291L85.2947 450.65ZM84.4562 450.65V470.153H84.1367V450.65H84.4562ZM83.7773 450.65V470.153L75.1522 470.911V451.448L83.7773 450.65ZM74.7529 451.488V470.632H74.3536V451.169L74.7529 451.488ZM73.8744 451.488V470.632H73.5949V451.169L73.8744 451.488ZM73.2355 451.488V470.951L64.2909 471.749V452.325L73.2355 451.488ZM63.9315 452.365V471.789H63.4124V452.285L63.9315 452.365ZM63.4124 450.69V438.725H63.9315V450.69H63.4124ZM64.2909 450.69V438.725L73.2355 437.847V449.573L64.2909 450.69ZM73.5949 449.812V438.087H73.8744V450.052L73.5949 449.812ZM74.2737 449.812V437.847H74.673V449.613L74.2737 449.812ZM75.0723 449.812V437.847L83.7374 436.97V448.935L75.0723 449.812ZM84.0968 448.975V437.01H84.4162V448.975H84.0968ZM84.8156 448.975V437.01H85.2947V448.975H84.8156ZM85.694 448.975V437.01L94.2792 436.172V448.137L85.694 448.975ZM94.6786 448.137V436.172H95.0779V448.137H94.6786ZM95.4772 448.137V436.172H95.8765V448.137H95.4772ZM96.2359 448.137V436.172L104.981 435.295V447.26L96.2359 448.137ZM105.38 447.3V435.335H105.66V447.3H105.38ZM106.059 447.3V435.335H106.538V447.3H106.059ZM111.649 446.781L106.898 447.22V435.255L111.649 434.776V446.781ZM111.649 434.298L63.2926 438.725V471.908L111.689 467.561V467.8L62.3742 472.427V437.768L111.609 432.862L111.649 434.298ZM111.649 433.101L62.3742 437.409H61.5356L111.769 432.423L111.649 433.101ZM111.649 432.463L60.3377 437.568V406.219L111.649 400.635V432.463ZM111.649 399.559L106.937 400.077V379.816L111.649 379.258V399.559ZM111.649 379.617L63.5721 384.283V383.326L111.729 378.141L111.649 379.617ZM106.578 380.574V400.197H106.299V379.896L106.578 380.574ZM105.7 380.574V400.197H105.42V379.976L105.7 380.574ZM105.021 380.574V400.197L96.3157 401.154V381.013L105.021 380.574ZM95.9164 381.611V401.194H95.3574V381.092L95.9164 381.611ZM94.998 381.611V401.194H94.6786V381.172L94.998 381.611ZM94.2792 381.611V401.194L85.6541 402.151V382.608L94.2792 381.611ZM85.2548 382.648V402.191H84.8555V382.648H85.2548ZM84.4562 382.648V402.191H84.1367V382.648H84.4562ZM83.7374 382.648V402.191L75.1123 403.148V383.605L83.7374 382.648ZM74.7129 383.645V402.829H74.3536V383.485L74.7129 383.645ZM73.9143 383.645V403.148H73.6348V383.605L73.9143 383.645ZM73.2355 383.645V403.148L64.2909 404.105V384.602L73.2355 383.645ZM63.8916 384.682V404.185H63.4923V384.682H63.8916ZM63.5721 382.887V371.321H63.9715V382.887H63.5721ZM64.3708 382.887V371.201L73.3153 370.164V381.89L64.3708 382.887ZM73.7147 381.89V370.084H74.0341V382.049L73.7147 381.89ZM74.4334 381.89V369.925H74.8328V381.691L74.4334 381.89ZM75.1921 381.89V369.925L83.8173 368.888V380.853L75.1921 381.89ZM84.2166 380.893V368.928H84.4961V380.893H84.2166ZM84.8954 380.893V368.928H85.3347V380.893H84.8954ZM85.7339 380.893V368.928L94.3192 367.611V379.577L85.7339 380.893ZM94.8383 379.936V367.97H95.1178V379.936H94.8383ZM95.5171 379.936V367.97H95.9164V379.936H95.5171ZM96.3157 379.936V367.97L105.101 366.894V378.859L96.3157 379.936ZM105.5 378.939V366.973H105.779V378.939H105.5ZM106.139 378.939V366.973H106.658V378.939H106.139ZM111.729 378.34L107.017 378.859V366.894L111.729 366.295V378.34ZM111.729 365.777L63.3725 370.922V404.145L111.689 398.841V399.16L62.3742 404.943V370.324L111.569 364.501L111.729 365.777ZM111.729 364.7L62.3742 369.925H61.4957L111.769 363.902L111.729 364.7ZM111.729 363.982L60.4176 369.526V345.875L111.729 339.533V363.982ZM121.153 797.681H112.129V338.496L121.153 337.379V797.681ZM185.882 270.215H185.203H184.524C182.487 269.736 180.93 266.944 180.93 263.594C180.811 261.903 181.235 260.218 182.14 258.784C183.044 257.349 184.383 256.24 185.961 255.617H186.8H187.199C188.44 256.156 189.475 257.078 190.151 258.249C190.826 259.419 191.108 260.776 190.953 262.118C191.095 263.834 190.678 265.549 189.764 267.008C188.85 268.467 187.488 269.592 185.882 270.215ZM186.321 270.454C187.917 269.755 189.255 268.576 190.15 267.083C191.044 265.589 191.451 263.853 191.312 262.118C191.374 260.959 191.173 259.801 190.724 258.73C190.274 257.66 189.588 256.704 188.717 255.936C189.812 256.572 190.705 257.506 191.292 258.628C191.879 259.751 192.135 261.016 192.031 262.278C192.15 263.969 191.726 265.654 190.821 267.088C189.917 268.522 188.578 269.631 187 270.255C186.738 270.381 186.452 270.449 186.161 270.454H186.321ZM187.798 270.454V284.493H187.039V270.773L187.798 270.454ZM171.187 271.89C171.3 273.062 171.025 274.239 170.405 275.24C169.785 276.241 168.853 277.012 167.753 277.434C168.746 276.874 169.562 276.045 170.106 275.044C170.649 274.042 170.9 272.907 170.827 271.77C170.864 270.301 170.335 268.873 169.35 267.782C169.965 268.277 170.453 268.911 170.772 269.633C171.092 270.355 171.234 271.142 171.187 271.93V271.89ZM168.671 277.513V287.165H167.912V277.833L168.671 277.513ZM166.555 263.155C166.25 263.194 165.941 263.194 165.636 263.155H165.277H164.798C163.212 262.399 161.904 261.165 161.058 259.626C160.213 258.087 159.873 256.322 160.086 254.58C159.897 252.37 160.434 250.159 161.616 248.28C162.797 246.402 164.559 244.96 166.635 244.17H167.313H167.753H168.232C169.835 244.873 171.171 246.068 172.047 247.581C172.924 249.095 173.294 250.848 173.104 252.586C173.34 254.834 172.826 257.097 171.642 259.023C170.458 260.949 168.669 262.429 166.555 263.235V263.155ZM166.555 263.474C168.703 262.638 170.521 261.129 171.738 259.173C172.955 257.217 173.504 254.92 173.303 252.626C173.359 251.102 173.056 249.586 172.418 248.2C171.78 246.814 170.825 245.598 169.629 244.649C171.177 245.398 172.457 246.602 173.3 248.099C174.142 249.596 174.505 251.315 174.341 253.025C174.551 255.253 174.024 257.489 172.841 259.39C171.659 261.291 169.885 262.754 167.793 263.554C167.446 263.583 167.098 263.569 166.754 263.514L166.555 263.474ZM168.471 263.474V267.223H167.793V264.073L168.471 263.474ZM166.794 277.194H166.315H166.195C165.357 276.8 164.663 276.153 164.212 275.345C163.761 274.536 163.575 273.607 163.68 272.687C163.572 271.516 163.853 270.342 164.482 269.347C165.11 268.351 166.049 267.591 167.154 267.183H167.952C168.795 267.564 169.496 268.201 169.955 269.004C170.413 269.806 170.607 270.732 170.508 271.65C170.653 272.858 170.385 274.079 169.747 275.114C169.109 276.15 168.138 276.939 166.994 277.354L166.794 277.194ZM141.718 797.681H121.552V337.379L141.718 340.091V797.681ZM196.024 797.681H142.237V650.669L196.144 648.515L196.024 797.681ZM196.024 648.156L142.117 650.349V530.897L196.024 526.908V648.156ZM196.024 526.549L142.237 530.458V411.045L196.144 405.422L196.024 526.549ZM196.024 405.063L142.237 410.806V339.892L133.013 338.656V292.51L196.304 283.815L196.024 405.063ZM257.678 797.681H196.383V731.354L257.678 732.67V797.681ZM257.678 732.311L196.383 731.035V663.91L257.678 666.383V732.311ZM257.678 666.064L196.383 663.551V596.546L257.678 600.215V666.064ZM257.678 599.816L196.383 596.147V529.022L257.678 533.848V599.816ZM257.678 533.529L196.383 528.663V461.578L257.678 467.641V533.529ZM257.678 467.282L196.383 461.259V394.055L257.678 401.393V467.282ZM257.678 401.034L196.383 393.656V326.651L257.678 335.026V401.034ZM270.576 797.681H258.037V732.67L270.536 732.909L270.576 797.681ZM270.576 732.59L258.037 732.271V666.423L270.536 666.941L270.576 732.59ZM270.576 666.582L258.037 666.064V600.175L270.536 600.933L270.576 666.582ZM270.576 600.574L258.077 599.856V533.888L270.576 534.885V600.574ZM270.576 534.526L258.077 533.569V467.681L270.576 468.917V534.526ZM270.576 468.558L258.077 467.322V401.433L270.576 402.909V468.558ZM270.576 402.55L258.077 401.074V335.026L270.576 336.741V402.55ZM274.928 797.681H270.935V732.949H274.928V797.681ZM274.928 732.67H270.935V666.941H274.928V732.67ZM274.928 666.742H270.935V600.933L274.928 601.172V666.742ZM274.928 600.853L270.935 600.614V534.925L274.928 535.244V600.853ZM274.928 534.885L270.935 534.566V468.957L274.928 469.356V534.885ZM274.928 468.997L270.935 468.598V402.829L274.928 403.308V468.997ZM274.928 403.068L270.935 402.63V336.941L274.928 337.459V403.068ZM274.928 337.14L196.383 326.252V283.775L274.928 295.74V337.14ZM678.992 173.895V198.384L620.932 186.418V161.571L678.992 173.895ZM619.535 722.779V705.948L671.725 707.543V724.215L620.693 722.819L619.535 722.779ZM620.493 723.138V748.145L559.159 749.062V724.374L620.493 723.138ZM620.892 723.138L678.992 724.773V749.222L621.012 748.145L620.892 723.138ZM619.335 705.509L584.755 706.267L620.693 705.389L673.322 707.065H671.964L619.335 705.509ZM620.493 680.023V705.03L559.758 706.466H559.159V682.017L620.493 680.023ZM619.535 679.664V662.833L671.725 665.146V681.698L620.693 679.664H619.535ZM620.892 705.03V680.023L678.992 682.376V706.865L620.892 705.03ZM619.335 662.434L565.228 664.149H564.31L620.653 662.195L674.999 664.668H671.964L619.335 662.434ZM620.493 636.829V661.796L559.558 663.91H559.159V639.302L620.493 636.829ZM619.535 636.47V619.918L671.725 622.869V639.182L620.693 636.43L619.535 636.47ZM620.892 661.796V636.829L678.992 639.94V664.428L620.892 661.796ZM619.335 619.519L565.228 621.753H562.553L620.693 619.2L675.598 622.55H671.964L619.335 619.519ZM620.493 593.634V618.602L559.358 621.314H559.159V596.666L620.493 593.634ZM619.535 593.275V576.724L671.685 580.712V596.905L620.693 593.355H619.535V593.275ZM620.892 618.602V593.634L678.992 597.623V622.112L620.892 618.602ZM619.335 576.325L565.228 579.276L561.874 578.957L620.693 575.766L676.357 579.755L671.964 580.034L619.335 576.325ZM668.73 539.073L623.488 534.845V549.802L661.063 553.072L620.773 549.722H619.575V533.409L671.725 537.837V553.79L668.85 553.551V539.232L668.73 539.073ZM668.73 539.432V553.671H668.131V539.432H668.73ZM667.732 539.432V553.671L660.824 553.032V538.754L667.732 539.432ZM660.424 538.714V553.032H659.905V538.435L660.424 538.714ZM659.506 538.714V553.032H658.867V538.435L659.506 538.714ZM658.468 538.714V552.992L648.645 552.155V537.797L658.468 538.714ZM648.245 537.757V552.115H647.726V537.757H648.245ZM647.367 537.757V552.115H646.688V537.717L647.367 537.757ZM646.329 537.757V552.155L636.186 551.277V536.839L646.329 537.757ZM635.787 536.8V551.238H635.228V536.76L635.787 536.8ZM634.868 536.8V551.277H634.149V536.839L634.868 536.8ZM633.79 536.8V551.277L623.847 550.4V535.244L633.79 536.8ZM620.493 550.4V575.367L559.278 578.678V554.029L620.493 550.4ZM620.892 575.367V550.4L678.992 555.226V579.715L620.892 575.367ZM619.375 533.33L565.268 536.68L561.594 536.321L620.733 532.333L676.636 537.318L671.964 537.637L619.375 533.33ZM620.493 507.126V532.133L559.238 536.122V511.473L620.493 507.126ZM619.535 506.807V490.574L671.725 495.799V511.752L620.733 506.767L619.535 506.807ZM620.892 532.133V507.126L678.992 512.829V537.318L620.892 532.133ZM619.375 490.135L565.268 494.124L561.275 493.725L620.573 489.178L676.796 494.961L671.845 495.32L619.375 490.135ZM620.493 463.971V488.939L559.238 493.605V468.957L620.493 463.971ZM599.29 464.929L586.152 465.966V451.767L599.29 450.69V464.929ZM599.689 464.929V450.451H600.487V464.968L599.689 464.929ZM600.847 464.929V450.53H601.286V464.769L600.847 464.929ZM601.685 464.929V450.69L615.821 449.493V463.772L601.685 464.929ZM668.73 454.08L623.488 449.134V463.812L620.972 463.533H619.774V447.579L672.004 453.562V469.236L669.169 468.917V454.12C669.19 454.062 669.188 453.998 669.161 453.941C669.135 453.885 669.088 453.842 669.029 453.821C668.971 453.8 668.907 453.802 668.851 453.829C668.795 453.855 668.751 453.902 668.73 453.96V454.08ZM668.73 454.559V469.037H668.091V454.678L668.73 454.559ZM661.982 453.721L668.091 454.399L661.982 453.721ZM667.732 454.798V468.917L660.824 468.159V453.96L667.732 454.798ZM660.424 453.562V468.119H659.905V453.562H660.424ZM659.546 453.562V468H658.867V453.841L659.546 453.562ZM651.2 452.564L658.787 453.362L651.2 452.564ZM658.468 453.801V467.88L648.684 466.803V452.644L658.468 453.801ZM648.285 452.206V466.644H647.766V452.126L648.285 452.206ZM647.367 452.206V466.644H646.648V452.445L647.367 452.206ZM646.289 452.206V466.364L636.146 465.248V451.009L646.289 452.206ZM635.747 450.69V465.208H635.228V450.69H635.747ZM634.828 450.69V465.168H634.189V450.69H634.828ZM633.83 450.69V464.889L623.847 463.772V449.533L633.83 450.69ZM621.092 488.819V463.852L678.992 470.632V495.121L621.092 488.819ZM619.575 447.06L565.468 451.607L561.235 451.049L620.932 445.984L677.315 452.684L672.204 453.083L619.575 447.06ZM620.693 420.657V445.625L559.398 450.849V426.161L620.693 420.657ZM569.501 425.044V410.527H569.94V424.845L569.501 425.044ZM570.22 410.367L583.916 409.051L570.22 410.367ZM583.916 409.53V423.728L570.339 424.965V410.806L583.916 409.53ZM584.275 423.688V409.051H584.994V423.728L584.275 423.688ZM585.393 423.688V409.091H585.833V423.529L585.393 423.688ZM586.232 423.688V409.211L599.369 407.934V422.332L586.232 423.688ZM599.769 422.452V407.735H600.527V422.452H599.769ZM600.927 422.452V407.775H601.366V422.292L600.927 422.452ZM601.725 422.452V408.014L615.901 406.658V421.176L601.725 422.452ZM668.81 412.082L623.568 406.259V420.857L621.052 420.538H619.854V404.584L672.084 411.444V426.76L669.249 426.401V411.843C669.26 411.774 669.242 411.704 669.201 411.648C669.16 411.592 669.098 411.554 669.029 411.544C668.961 411.533 668.89 411.55 668.834 411.591C668.778 411.633 668.741 411.694 668.73 411.763L668.81 412.082ZM668.81 412.521V426.799H668.211V412.76L668.81 412.521ZM667.812 412.521V426.52L660.864 425.643V411.604L667.812 412.521ZM660.464 411.205V425.603H660.025V411.245L660.464 411.205ZM659.626 411.205V425.483H658.947V411.404L659.626 411.205ZM658.547 411.205V425.204L648.724 423.928V409.889L658.547 411.205ZM648.365 409.49V423.888H647.806V409.53L648.365 409.49ZM647.447 409.49V423.808H646.768V409.689L647.447 409.49ZM646.368 409.49V423.609L636.226 422.292V408.174L646.368 409.49ZM635.827 407.854V422.253H635.307V407.854H635.827ZM634.908 407.854V422.213H634.229V408.054L634.908 407.854ZM633.87 407.854V421.973L623.927 420.697V406.817L633.87 407.854ZM621.172 445.704V420.737L679.272 428.116V452.604L621.172 445.704ZM619.654 403.986L565.548 409.171L561.195 408.612L621.092 402.829L677.315 410.447L671.805 410.965L619.654 403.986ZM620.773 377.503V402.47L559.438 408.413V383.804L620.773 377.503ZM569.501 382.369V367.97H569.94V382.209L569.501 382.369ZM570.339 382.369V368.09L583.836 366.694V380.933L570.339 382.369ZM584.195 380.973V366.375H584.994V380.893L584.195 380.973ZM585.393 380.973V366.295H585.913V380.614L585.393 380.973ZM586.312 380.973V366.415L599.409 365.099V379.337L586.312 380.973ZM599.809 379.577V364.74H600.567V379.297L599.809 379.577ZM600.927 379.577V364.7H601.366V379.058L600.927 379.577ZM601.725 379.577V364.859L615.901 363.344V377.662L601.725 379.577ZM668.81 369.885L623.488 362.945V377.343L620.972 376.984H619.774V361.031L671.964 368.569V383.884L669.169 383.485V369.606C669.196 369.547 669.198 369.481 669.175 369.421C669.153 369.362 669.108 369.313 669.049 369.287C668.991 369.26 668.925 369.258 668.865 369.28C668.805 369.303 668.756 369.348 668.73 369.406L668.81 369.885ZM668.81 370.363V384.363H668.211V370.044L668.81 370.363ZM660.824 369.167L668.051 370.204L660.824 369.167ZM667.732 370.563V384.203L660.624 382.887V369.047L667.732 370.563ZM660.464 369.087V382.887H659.945V368.529L660.464 369.087ZM659.546 369.087V383.166H658.867V368.688L659.546 369.087ZM654.395 368.289L658.707 368.888L654.395 368.289ZM658.388 369.287V383.007L648.605 381.611V367.253L658.388 369.287ZM648.085 366.933V381.092H647.646V366.933H648.085ZM647.247 366.933V380.893H646.528V366.933H647.247ZM646.169 366.933V380.773L635.946 379.337V365.378L646.169 366.933ZM635.587 365.099V379.297H635.068V364.979L635.587 365.099ZM634.669 365.099V379.258H633.99V365.298L634.669 365.099ZM633.59 365.099V378.899L623.648 377.503V363.663L633.59 365.099ZM620.892 402.59V377.582L678.992 385.559V410.128L620.892 402.59ZM619.375 361.11L565.228 366.933L560.676 366.255L620.573 359.914L677.515 368.289L671.845 368.848L619.375 361.11ZM620.493 334.428V359.355L559.159 365.857V341.168L620.493 334.428ZM569.501 339.653V325.334H569.94V339.453L569.501 339.653ZM570.18 325.175L583.916 323.619L570.18 325.175ZM583.876 324.018V338.057L570.299 339.573V325.534L583.876 324.018ZM584.275 338.018V323.579H584.994V338.018H584.275ZM585.393 338.018V323.659H585.833V337.818L585.393 338.018ZM586.072 323.5L595.416 322.423L586.072 323.5ZM599.409 322.343V336.462L586.192 337.938V323.739L599.409 322.343ZM599.809 336.422V321.825H600.567V336.223L599.809 336.422ZM600.927 336.422V321.785H601.326V336.023L600.927 336.422ZM601.725 336.422V321.944L615.901 320.349V334.508L601.725 336.422ZM668.73 327.049L623.488 319.87V334.149L620.972 333.79H619.814V318.434L671.924 326.73V341.846L669.169 341.408V327.289L668.73 327.049ZM668.73 327.488V341.288H668.091V327.727L668.73 327.488ZM663.299 326.531L668.011 327.289L663.299 326.531ZM667.732 327.608V341.128L660.784 340.052V326.491L667.732 327.608ZM660.424 326.052V340.012H659.905V326.052H660.424ZM659.506 326.052V339.932H658.827V326.252L659.506 326.052ZM648.684 324.258L658.747 325.853L648.684 324.258ZM658.468 326.252V339.772L648.684 338.257V324.656L658.468 326.252ZM648.285 324.178V338.217H647.766V324.138L648.285 324.178ZM647.407 324.178V338.097H646.688V324.297L647.407 324.178ZM636.106 322.343L646.568 324.018L636.106 322.343ZM646.289 324.337V337.938L636.106 336.342V322.662L646.289 324.337ZM635.747 322.223V336.302H635.268V322.104L635.747 322.223ZM634.868 322.223V336.223H634.149V322.303L634.868 322.223ZM624.127 320.429L634.07 322.024L624.127 320.429ZM633.75 322.423V336.023L623.847 334.508V320.668L633.75 322.423ZM621.092 359.435V334.388L679.192 343.362V367.891L621.092 359.435ZM619.575 318.115L565.468 324.377L560.716 323.54L620.932 316.56L678.034 325.773L672.204 326.491L619.575 318.115ZM620.693 291.194V316.201L559.159 323.061V298.572L620.693 291.194ZM569.501 296.937V282.818H569.98V296.738L569.501 296.937ZM570.18 282.658L583.876 280.983L570.18 282.658ZM583.836 281.342V295.142L570.339 296.777V283.177L583.836 281.342ZM584.235 295.142V280.904H585.034V295.142H584.235ZM585.393 295.142V280.864H585.833V295.142H585.393ZM586.072 280.784L599.369 279.149L586.072 280.784ZM599.369 279.547V293.427L586.232 295.023V281.023L599.369 279.547ZM599.769 293.387V278.949H600.567V293.268L599.769 293.387ZM600.927 293.387V278.949H601.366V292.909L600.927 293.387ZM601.685 279.069L616.101 277.274L601.685 279.069ZM615.901 277.673V291.154L601.725 292.869V279.189L615.901 277.673ZM668.81 284.812L634.948 278.989L623.568 277.035V291.154L621.052 290.715H619.894V275.2L672.044 284.334V299.17L669.249 298.732V284.772C669.276 284.704 669.274 284.627 669.244 284.56C669.214 284.492 669.158 284.44 669.089 284.413C669.021 284.387 668.944 284.389 668.877 284.419C668.809 284.449 668.756 284.504 668.73 284.573L668.81 284.812ZM660.824 283.975L668.211 285.251H667.931L660.824 283.975ZM667.772 285.57V298.891L660.824 297.695V284.094L667.772 285.57ZM668.131 285.57L668.73 285.331V299.091H668.131V285.57ZM660.424 283.775V297.695H659.905V283.416L660.424 283.775ZM648.645 281.901L658.987 283.656H658.627L648.645 281.901ZM658.508 284.054V297.376L648.645 295.701V281.98L658.508 284.054ZM658.867 284.054L659.506 283.815V297.575H658.867V284.054ZM648.285 281.741V295.661H647.766V281.342L648.285 281.741ZM636.306 279.787L646.967 281.621H646.608L636.306 279.787ZM646.488 281.98V295.142L636.306 293.427V279.867L646.488 281.98ZM646.848 281.98L647.526 281.741V295.142H646.848V281.98ZM635.587 279.189V293.148H635.028V279.189H635.587ZM623.608 277.234L634.03 279.029H633.67L623.608 277.234ZM633.55 279.428V292.829L623.648 291.154V277.593L633.55 279.428ZM633.95 279.428H634.589V293.268H633.95V279.428ZM620.852 316.121V291.154L678.952 300.965V325.494L620.852 316.121ZM619.335 274.961L565.228 281.741L560.357 280.824L620.693 273.286L677.874 283.416L671.964 284.134L619.335 274.961ZM620.453 247.959V272.927L559.119 280.585V255.936L620.453 247.959ZM569.501 254.221V240.262H569.94V253.982L569.501 254.221ZM570.18 240.142L583.956 238.307L570.18 240.142ZM583.836 238.706V252.347L570.299 254.102V240.501L583.836 238.706ZM584.235 252.307V238.188H584.994V252.267L584.235 252.307ZM585.354 252.307V238.148H585.833V252.067L585.354 252.307ZM586.072 238.148L599.449 236.393L586.072 238.148ZM599.369 236.712V250.472L586.192 252.187V238.347L599.369 236.712ZM599.769 250.432V236.114H600.527V250.233L599.769 250.432ZM600.927 250.432V236.074H601.366V250.073L600.927 250.432ZM601.725 250.432V236.233L615.901 234.359V248.159L601.725 250.432ZM668.85 242.814L659.626 241.059L634.908 236.393L623.568 234.279V248.278L621.052 247.8H619.894V232.405L672.084 242.136V256.973L669.289 256.455V242.535C669.289 242.535 668.85 242.376 668.77 242.376L668.85 242.814ZM660.664 241.817L668.051 243.213L660.664 241.817ZM667.652 243.492V256.654L660.664 255.338V242.176L667.652 243.492ZM668.051 243.492H668.61V257.053H668.051V243.492ZM660.304 241.618V255.298H659.785V241.059L660.304 241.618ZM648.565 239.504L658.787 241.418H658.508L648.565 239.504ZM658.348 241.777V254.939L648.565 253.144V239.305L658.348 241.777ZM658.747 241.777L659.426 241.578V255.178H658.747V241.777ZM648.165 239.384V253.104H647.646V238.746L648.165 239.384ZM636.186 237.191L646.808 239.225H646.528L636.186 237.191ZM646.368 239.544V252.745L636.186 250.871V237.071L646.368 239.544ZM646.768 239.544L647.407 239.344V252.985H646.768V239.544ZM635.787 237.071V250.831H635.228V236.393L635.787 237.071ZM623.807 234.877L634.229 236.832H633.87L623.807 234.877ZM633.71 237.231V250.472L623.807 248.637V234.718L633.71 237.231ZM634.11 237.231H634.788V250.911H634.11V237.231ZM621.052 273.525V247.959L679.152 258.688V283.177L621.052 273.525ZM619.535 232.564L565.228 239.305L560.317 238.387L620.693 230.091L677.994 240.98L671.964 241.817L619.535 232.564ZM620.653 205.363V229.732L559.318 238.148V213.5L620.653 205.363ZM569.501 211.625V197.785H569.94V211.465L569.501 211.625ZM583.836 196.03V209.591L570.339 211.505V197.945L583.836 196.03ZM570.779 197.506L583.836 195.592L570.779 197.506ZM584.235 209.471V195.432H585.034V209.431L584.235 209.471ZM585.433 209.471V195.432H585.833V209.152L585.433 209.471ZM599.409 193.837V207.397L586.232 209.272V195.632L599.409 193.837ZM593.859 194.236L599.409 193.438L593.859 194.236ZM599.729 207.397V193.318H600.487V207.397H599.729ZM600.887 207.198V193.238H601.286V207.038L600.887 207.198ZM601.646 207.198V193.398L615.821 191.444V205.124L601.646 207.198ZM668.77 200.218L659.546 198.344L647.566 195.831L623.608 190.965V204.845L621.092 204.326H619.974V189.33L672.124 199.819V214.417L669.329 213.859V200.298C669.329 200.298 668.85 200.099 668.77 200.099V200.218ZM668.53 200.657V213.779H667.931V200.697L668.53 200.657ZM660.544 199.022L667.812 200.497L660.544 199.022ZM667.452 200.816V213.739L660.544 212.343V199.42L667.452 200.816ZM660.145 198.862V212.263H659.626V198.623L660.145 198.862ZM659.226 198.862V212.183H658.587V198.822L659.226 198.862ZM648.365 196.629L658.587 198.703L648.365 196.629ZM658.188 199.022V211.785L648.365 209.83V196.788L658.188 199.022ZM648.006 196.469V209.95H647.487V196.15L648.006 196.469ZM647.087 196.469V209.91H646.448V196.748L647.087 196.469ZM635.827 194.236L646.408 196.389H646.169L635.827 194.236ZM646.049 196.669V209.391L635.906 207.397V194.315L646.049 196.669ZM635.467 193.996V207.397H635.028V193.597L635.467 193.996ZM623.488 191.723L633.95 193.877H633.63L623.488 191.723ZM633.431 194.156V207.238L623.488 205.244V191.803L633.431 194.156ZM633.79 194.156L634.549 193.916V207.437H633.79V194.156ZM620.733 230.051V204.805L678.833 216.252V240.78L620.733 230.051ZM619.215 189.17L562.433 197.546L558.24 196.549V196.31L620.653 187.176L677.994 198.862L671.765 199.779L619.215 189.17ZM502.416 719.628V718.751L541.509 719.788V704.392H541.309L502.217 703.076V702.159L543.825 703.515V720.904L504.213 719.907L502.416 719.628ZM504.213 719.947V745.832H502.416V719.708L504.213 719.947ZM502.416 718.352V703.116L512.639 703.435V718.631L502.416 718.352ZM512.998 718.631V703.475H513.637V718.671L512.998 718.631ZM514.036 718.631V703.435H514.635V718.591L514.036 718.631ZM514.995 718.631V703.435L526.175 703.794V718.91L514.995 718.631ZM526.535 718.91V703.834H527.134V718.95L526.535 718.91ZM527.533 718.91V703.834H528.212V718.95L527.533 718.91ZM528.611 718.91V703.834L540.271 704.193V719.229L528.611 718.91ZM540.591 719.229V704.193H541.549V719.189L540.591 719.229ZM541.429 675.357V659.842L502.376 658.087V657.05L543.945 659.004V676.234L504.373 674.679H502.416V673.881L541.429 675.357ZM502.376 673.363V658.087L512.559 658.526V673.642L502.376 673.363ZM512.918 673.801V658.685H513.597V673.801H512.918ZM513.956 673.801V658.685H514.555V674.041L513.956 673.801ZM514.915 673.801V658.685L526.096 659.204V674.24L514.915 673.801ZM526.495 674.28V659.283H527.094V674.32L526.495 674.28ZM527.493 674.28V659.204H528.132V674.24L527.493 674.28ZM528.531 674.28V659.204L540.231 659.722V674.758L528.531 674.28ZM540.511 674.758V659.762H541.549V674.758H540.511ZM541.269 630.886V615.411V615.212L502.217 612.898V611.861L543.905 614.374V631.444L504.213 629.331H502.257V628.732L541.269 630.886ZM502.257 628.373V613.178L512.359 613.776V628.932L502.257 628.373ZM512.719 628.932V613.776H513.477V628.932H512.719ZM513.837 628.932V613.776H514.436V628.932H513.837ZM514.835 628.932V614.214L525.936 614.893V630.009L514.835 628.932ZM526.335 629.57V614.454H527.014V629.57H526.335ZM527.413 629.57V614.454H527.972V629.53L527.413 629.57ZM528.372 629.57V614.454L540.111 615.172V630.208L528.372 629.57ZM540.351 630.248V615.172H541.549V630.248H540.351ZM541.11 586.375V571.14L502.057 568.268V567.231L543.705 570.342V587.213L504.054 584.541H502.097V584.022L541.11 586.375ZM502.097 583.344V568.188L512.319 568.946V584.022L502.097 583.344ZM512.679 584.062V568.946H513.597V584.062H512.679ZM513.677 584.062V568.946H514.276V584.062H513.677ZM514.675 584.062V568.986L525.816 569.824V584.82L514.675 584.062ZM526.175 584.86V570.342H526.814V585.378L526.175 584.86ZM527.214 584.86V570.342H527.893V585.338L527.214 584.86ZM528.292 584.86V570.342L539.952 571.219V586.296L528.292 584.86ZM540.271 585.658V570.701H540.91V586.296L540.271 585.658ZM541.549 393.616L502.496 388.391V387.474L544.144 392.978V408.931L541.709 408.652V393.815C541.71 393.769 541.694 393.723 541.665 393.687C541.636 393.65 541.595 393.625 541.549 393.616ZM541.349 394.015V408.772H540.67V394.134L541.349 394.015ZM540.311 394.015V408.533L528.691 407.057V392.539L540.311 394.015ZM528.332 392.14V407.017H527.693V392.14H528.332ZM527.293 392.14V406.817H526.615V392.26L527.293 392.14ZM526.255 392.14V406.817L515.115 405.382V390.864L526.255 392.14ZM514.715 390.305V405.262H514.156V390.345L514.715 390.305ZM513.757 390.305V405.182H513.038V390.505L513.757 390.305ZM512.679 390.305V404.903L504.692 403.866L502.736 404.105V389.109L512.679 390.305ZM504.333 404.265V430.748H502.536V404.664L504.333 404.265ZM504.333 430.788L556.244 436.89L544.584 437.927V436.89L502.736 431.944V431.147L504.333 430.788ZM544.025 437.05V453.362L541.669 453.083V437.887L502.536 433.3V432.303L544.025 437.05ZM541.309 438.087V453.043H540.551V438.326L541.309 438.087ZM540.151 438.087V452.764L528.531 451.448V436.691L540.151 438.087ZM528.172 436.332V451.408H527.533V436.332H528.172ZM527.174 436.332V451.368H526.495V436.731L527.174 436.332ZM526.135 436.332V451.169L514.955 449.892V435.055L526.135 436.332ZM514.595 434.736V449.852H513.996V434.696L514.595 434.736ZM513.637 434.736V449.773H512.958V434.896L513.637 434.736ZM512.559 434.736V449.533L504.573 448.616L502.616 448.895V433.5L512.559 434.736ZM504.213 449.055V475.219H502.416V449.134L504.213 449.055ZM504.213 475.578L555.685 480.922L544.264 481.799V480.922L502.416 476.535V475.897L504.213 475.578ZM543.905 481.121V497.594L541.469 497.354V482.597L502.416 478.609V477.691L543.905 481.121ZM541.11 482.198V497.314H540.511V482.597L541.11 482.198ZM540.111 482.198V497.314L528.372 496.198V480.962L540.111 482.198ZM528.132 480.922V496.158H527.493V480.922H528.132ZM527.094 480.922V496.158H526.495V480.922H527.094ZM526.135 480.922V496.158L514.955 495.081V479.725L526.135 480.922ZM514.595 479.686V495.041H513.956V479.686H514.595ZM513.597 479.686V495.041H512.958V479.686H513.597ZM512.559 479.686V495.041L504.573 494.243L502.616 494.483V478.529L512.559 479.686ZM504.173 494.642V520.806H502.376V494.722L504.173 494.642ZM504.173 521.165L555.325 525.672L544.224 526.43V525.712V525.512L502.376 521.763V521.325L504.173 521.165ZM543.865 525.871V542.423H541.549V527.068V526.868L502.496 523.398V522.362L543.865 525.871ZM541.07 527.028V541.984H540.431V526.988L541.07 527.028ZM540.032 527.028V541.984L528.372 540.987V525.991L540.032 527.028ZM528.052 525.951V540.987H527.413V525.951H528.052ZM527.054 525.951V541.027H526.375V525.672L527.054 525.951ZM526.016 525.951V540.987L514.875 540.07V524.954L526.016 525.951ZM514.476 524.954V540.03H513.877V524.914L514.476 524.954ZM513.517 524.954V540.07H512.878V524.475L513.517 524.954ZM512.479 524.954V540.07L502.297 539.193V524.037L512.479 524.954ZM536.837 542.503L504.293 539.791H502.336V539.472L536.837 542.503ZM504.093 540.19V566.354H502.297V540.27L504.093 540.19ZM504.093 566.713L554.686 570.462L544.144 571.06V570.462C544.169 570.398 544.169 570.326 544.144 570.262L502.297 567.151V566.354L504.093 566.713ZM504.093 585.259V611.423H502.297V585.338L504.093 585.259ZM504.093 611.782L554.287 614.733L544.184 615.251V614.214V614.015L502.297 611.462L504.093 611.782ZM504.093 630.248V656.412H502.297V630.328L504.093 630.248ZM504.093 656.811L553.089 658.964L544.105 659.323V659.044L543.905 658.845L502.137 656.89H504.093V656.811ZM544.025 703.156L503.654 701.88H504.173L550.773 703.276H544.224L544.384 702.637L544.025 703.156ZM504.093 675.237V701.401H502.297V675.317L504.093 675.237ZM504.493 720.266L557.641 721.622V747.307L504.772 745.832L504.493 720.266ZM556.044 721.184L544.304 720.904V703.714L556.044 703.435V721.184ZM504.493 701.242V675.078L557.641 677.151V702.837L504.493 701.242ZM556.044 676.713L544.264 676.234V659.483L556.044 659.004V676.713ZM504.493 656.173V630.009L557.641 632.84V658.087L504.493 656.173ZM556.044 632.242L544.344 631.644V615.291L556.044 614.653V632.242ZM504.493 611.064V584.9L557.641 588.489V614.214L504.493 611.064ZM556.004 587.971L544.304 587.213V571.06L556.004 570.422V587.971ZM504.493 565.995V539.831L557.641 544.258V569.943L504.493 565.995ZM556.004 543.739L544.304 542.742V526.789L556.004 525.991V543.739ZM504.493 520.926V494.562L557.641 499.747V525.433L504.493 520.926ZM556.044 499.388L544.304 498.272V482.597L556.044 481.68V499.388ZM504.493 475.857V449.693L557.641 455.675V481.361L504.493 475.857ZM556.044 455.117L544.304 453.801V438.725L556.044 437.688V455.117ZM504.772 430.748V404.584L557.921 411.364V437.05L504.772 430.748ZM544.703 409.29V394.414L556.443 393.297V410.806L544.703 409.29ZM544.703 394.134V392.858L502.856 387.354V386.357H504.812L556.723 393.297L544.703 394.134ZM541.549 349.384L502.496 343.522V342.564L544.105 348.667V364.62L541.709 364.261V349.544L541.549 349.384ZM541.309 349.783V364.261H540.67V349.863L541.309 349.783ZM540.271 349.783V364.142L528.651 362.466V348.068L540.271 349.783ZM528.292 347.669V362.347H527.653V347.669H528.292ZM527.293 347.669V362.267H526.655V347.709L527.293 347.669ZM526.255 347.669V362.147L515.154 360.552V346.114L526.255 347.669ZM514.755 345.715V360.432H514.116V345.675L514.755 345.715ZM513.757 345.715V360.432H513.118V345.755L513.757 345.715ZM512.719 345.715V360.153L504.732 358.997L502.776 359.236V344.239L512.719 345.715ZM504.333 359.395V385.559H502.536V359.675L504.333 359.395ZM504.732 385.559V359.435L557.921 366.933V392.619L504.732 385.559ZM544.664 364.7V350.342L556.403 349.026V366.415L544.664 364.7ZM544.664 349.903V348.467L502.816 342.325V341.208H504.772L556.883 348.866L544.664 349.903ZM541.549 304.954L502.456 298.612V297.695L544.065 304.475V320.189L541.709 319.79V305.153C541.7 305.11 541.681 305.069 541.653 305.034C541.625 304.999 541.59 304.972 541.549 304.954ZM541.309 305.392V319.751H540.631V305.472L541.309 305.392ZM540.231 305.392V319.511L528.611 317.677V303.598L540.231 305.392ZM528.252 303.119V317.637H527.613V303.119H528.252ZM527.254 303.119V317.597H526.575V303.119H527.254ZM526.175 303.119V317.318L515.075 315.563V301.364L526.175 303.119ZM514.675 300.885V315.523H514.076V300.885H514.675ZM513.717 300.885V315.443H513.078V301.045L513.717 300.885ZM512.838 300.885L502.576 299.131L512.838 300.885ZM512.838 301.244V315.483L504.852 314.207H502.896V299.37L512.838 301.244ZM504.453 314.606V340.77H502.656V314.606H504.453ZM504.852 340.77V314.406L558.001 322.702V348.387L504.852 340.77ZM556.403 322.263L544.664 320.429V306.11L556.403 304.794V322.263ZM544.664 305.911V304.475L502.816 297.655V296.578L504.772 296.299L556.962 304.714L544.664 305.911ZM541.549 260.603L502.496 253.703V252.825L544.144 260.244V275.759L541.709 275.32V260.762L541.549 260.603ZM541.349 261.001V275.2H540.67V261.161L541.349 261.001ZM528.771 258.728L540.75 260.802L528.771 258.728ZM540.271 261.161V275.2L528.651 273.246V259.247L540.271 261.161ZM528.292 258.648V273.046H527.733V258.529L528.292 258.648ZM527.333 258.648V273.007H526.615V258.648H527.333ZM515.115 256.455L526.455 258.409L515.115 256.455ZM526.215 258.808V272.807L515.115 270.933V256.694L526.215 258.808ZM514.755 256.375V270.853H514.156V256.136L514.755 256.375ZM513.757 256.375V270.813H513.078V256.295L513.757 256.375ZM512.958 256.375L502.656 254.58L512.958 256.375ZM512.719 256.734V270.813L504.732 269.417L502.776 269.816V254.5L512.719 256.734ZM504.333 269.856V296.02L502.536 296.299V269.776L504.333 269.856ZM504.732 296.02V269.417L557.881 278.471V304.156L504.732 296.02ZM556.284 278.231L544.544 276.237V261.999L556.284 260.483V278.231ZM544.544 262.038V260.523L502.696 253.065V251.27L504.652 250.991L556.962 260.164L544.544 262.038ZM541.549 216.291L502.496 208.793V207.916L544.105 215.893V231.328L541.709 230.889V216.491L541.549 216.291ZM541.309 216.69V230.729H540.71V216.81L541.309 216.69ZM540.311 216.69V230.53L528.651 228.416V214.616L540.311 216.69ZM528.651 214.098L531.686 214.656L528.651 214.098ZM528.292 214.098V228.297H527.613V214.018L528.292 214.098ZM527.254 214.098V228.137H526.575V214.178L527.254 214.098ZM515.075 211.705L526.495 213.898L515.075 211.705ZM526.215 214.257V228.017L515.075 225.983V212.024L526.215 214.257ZM514.755 211.386V225.704H514.156V211.386H514.755ZM513.797 211.386V225.584H513.118V211.585L513.797 211.386ZM513.118 211.146L502.736 209.112L513.118 211.146ZM512.759 211.545V225.385L504.772 223.909L502.816 224.268V209.631L512.759 211.545ZM504.373 224.308V250.472L502.576 250.751V224.707L504.373 224.308ZM504.772 250.472V224.348L557.921 234.159V259.845L504.772 250.472ZM556.284 233.442L544.544 231.328V217.847L556.284 216.252V233.442ZM544.544 217.488V215.733L502.736 207.756V206.36L504.692 206.041L557.082 216.052L544.544 217.488ZM544.544 171.302L502.696 162.727V160.454L556.803 171.502L544.544 173.217V171.502L544.424 171.262L544.544 171.302ZM544.304 171.661V186.817L541.908 186.339V172.18L502.856 164.203V163.365L544.304 171.661ZM541.509 172.459V186.259H540.91V172.698L541.509 172.459ZM538.115 171.661L540.71 172.22L538.115 171.661ZM540.511 172.579V186.059L528.851 183.746V170.106L540.511 172.579ZM528.531 169.667V183.467H527.932V169.507L528.531 169.667ZM527.533 169.667V183.467H526.854V169.627L527.533 169.667ZM515.354 167.114L526.695 169.468L515.354 167.114ZM526.455 169.787V183.387L515.354 181.154V167.513L526.455 169.787ZM514.995 166.995V181.074H514.356V166.716L514.995 166.995ZM513.956 166.995V180.994H513.318V166.835L513.956 166.995ZM513.198 166.755L502.856 164.682L513.198 166.755ZM512.958 167.114V180.795L504.972 179.159L503.015 179.558V164.801L512.958 167.114ZM504.373 179.478V205.603L502.576 205.882V179.478H504.373ZM504.772 205.642V179.478L557.921 190.088V215.773L504.772 205.642ZM544.703 187.017V173.855L558.041 171.94H558.36V171.302L620.613 161.85V186.817L558.32 195.632V189.769L544.703 187.017ZM615.022 132.974L638.981 138.358V148.568L615.022 143.344V132.974ZM590.465 136.962L614.623 132.974V143.224L613.505 142.985V140.113C613.523 140.083 613.532 140.048 613.532 140.013C613.532 139.978 613.523 139.944 613.505 139.914L599.01 136.803L591.024 138.039H590.744L590.465 136.962ZM613.146 140.432V143.064L599.05 139.993V137.401L613.146 140.432ZM598.651 137.361V139.594L591.782 138.119L598.651 137.361ZM584.755 55.3992H587.51V137.321L584.755 136.723V55.3992ZM555.764 130.82L672.603 156.266V172.22L620.693 161.212L558.24 170.704V145.577L555.884 145.059L555.764 130.82ZM555.365 130.82V144.7L518.389 136.723L555.365 130.82ZM557.881 145.657V171.502L424.95 144.061V117.299L557.881 145.657ZM475.463 718.711L424.75 717.394H424.031V699.247L472.747 700.603H475.463V718.711ZM480.694 719.229V745.553L424.79 744.516V717.913L480.694 719.229ZM349.879 156.824H350.398H350.678H350.079H349.879ZM349.879 157.263V732.949H349.28V157.064L349.879 157.263ZM348.242 120.251L360.98 117.937V127.629L350.198 129.504V133.133L348.402 133.452L348.242 120.251ZM348.242 119.892L361.299 117.578L348.242 119.892ZM418.681 148.808L404.265 151.201L361.14 158.26V173.097L357.466 173.695V157.742L423.872 147.013V162.966L419.08 163.764V148.967L418.681 148.808ZM405.064 151.44L418.481 149.246L405.064 151.44ZM418.361 149.645V164.043L405.264 166.157V151.799L418.361 149.645ZM404.864 151.759V166.197H404.305V151.56L404.864 151.759ZM403.946 151.759V166.556H403.107V151.56L403.946 151.759ZM389.291 154.232L402.908 151.998L389.291 154.232ZM402.748 152.437V166.755L389.411 168.869V154.431L402.748 152.437ZM389.012 154.551V168.949H388.453V154.192L389.012 154.551ZM388.093 154.352V169.109H387.295V154.312L388.093 154.352ZM373.878 156.784H373.838L387.095 154.591L373.878 156.784ZM386.895 154.95V169.268L373.997 171.342V156.984L386.895 154.95ZM373.598 157.143V171.422H372.999V156.745L373.598 157.143ZM372.64 156.904V171.502H371.801V156.824L372.64 156.904ZM362.018 158.699L371.562 157.143L362.018 158.699ZM371.402 157.502V171.502L362.138 172.977V158.858L371.402 157.502ZM361.779 159.018V173.097H361.18V158.659L361.779 159.018ZM424.55 163.525V190.287L350.638 201.614V175.49L424.55 163.525ZM469.673 157.223L426.986 148.528V163.525L425.03 163.126H424.351V147.172L475.742 157.622V173.217L469.673 172.02V157.383V157.223ZM456.336 154.99L468.874 157.582H468.595L456.336 154.99ZM468.315 157.901V171.741L456.336 169.348V155.548L468.315 157.901ZM468.674 157.901H469.353V172.18H468.674V157.901ZM455.857 154.87V169.308H455.258V154.671L455.857 154.87ZM442.16 152.158L454.14 154.591H453.86L442.16 152.158ZM453.86 154.95V168.909L442.16 166.556V152.517L453.86 154.95ZM454.219 154.95L454.858 154.75V169.109H454.219V154.95ZM441.721 151.958V166.436H441.002V151.799L441.721 151.958ZM427.026 149.087L440.044 151.719H439.804L427.026 149.087ZM439.605 152.038V166.038L427.146 163.525V149.446L439.605 152.038ZM440.004 152.038H440.643V166.436H440.004V152.038ZM418.601 194.754L361.1 203.409V218.445L357.386 219.004V203.17L423.792 193.119V209.471L418.96 210.189V194.874C418.935 194.83 418.901 194.793 418.859 194.765C418.818 194.738 418.77 194.72 418.721 194.714L418.601 194.754ZM405.064 197.227L418.401 195.193L405.064 197.227ZM418.281 195.592V210.269L405.184 212.223V197.546L418.281 195.592ZM404.824 197.546V212.303H404.265V197.347L404.824 197.546ZM403.906 197.347V212.423H403.068V197.426L403.906 197.347ZM389.251 199.66L402.868 197.586L389.251 199.66ZM402.708 197.945V212.582L389.371 214.576V200.019L402.708 197.945ZM388.972 200.019V214.656H388.413V199.779L388.972 200.019ZM388.053 199.779V214.776H387.255V199.899L388.053 199.779ZM373.798 202.013L386.895 199.979L373.798 202.013ZM386.855 200.378V214.935L373.958 216.89V202.332L386.855 200.378ZM373.558 202.332V216.93H372.959V202.172L373.558 202.332ZM372.6 217.089H371.801V202.252H372.6V217.089ZM371.402 202.731V217.249L362.138 218.645V204.127L371.402 202.731ZM361.739 204.167V218.684H361.219V203.927L361.739 204.167ZM424.431 209.75V236.513L350.518 246.962V220.679L424.431 209.75ZM418.601 240.74L361.1 248.717V263.953L357.426 264.471V248.438L423.632 239.305V255.657L418.76 256.295V240.86C418.76 240.86 418.76 240.74 418.721 240.7L418.601 240.74ZM405.064 243.014L418.361 241.139L405.064 243.014ZM418.281 241.538V256.415L405.264 258.17V243.293L418.281 241.538ZM404.984 243.293V258.17H404.425V243.293H404.984ZM404.026 243.054V258.289H403.227V243.293L404.026 243.054ZM402.828 243.572V258.449L389.451 260.284V245.526L402.828 243.572ZM389.092 245.487V260.323H388.532V245.367L389.092 245.487ZM388.173 245.487V260.603H387.414V245.447L388.173 245.487ZM374.596 247.401L387.015 245.646L374.596 247.401ZM387.015 246.045V260.762L374.077 262.557V247.76L387.015 246.045ZM373.678 247.84V262.597H373.119V247.6L373.678 247.84ZM372.72 247.84V262.876H371.921V247.68L372.72 247.84ZM371.562 248.318V263.036L362.298 264.312V249.395L371.562 248.318ZM361.898 249.674V264.392H361.299V249.236L361.898 249.674ZM424.55 256.175V282.938L350.638 292.55V266.027L424.55 256.175ZM418.721 286.966L361.219 294.464C361.219 294.464 361.02 294.464 361.02 294.664V309.979L357.386 310.418V293.666L423.792 285.131V301.763L418.92 302.361V286.806C418.92 286.806 418.76 286.687 418.721 286.687V286.966ZM418.401 287.684V302.68L405.383 304.316V289.08L418.401 287.684ZM404.984 289.359V304.355H404.425V288.92L404.984 289.359ZM404.026 289.359V304.635H403.227V289L404.026 289.359ZM389.451 291.632L402.828 289.838V304.794L389.451 306.469V291.632ZM389.211 291.592V306.509H388.692V291.154L389.211 291.592ZM388.293 291.592V306.828H387.534V291.154L388.293 291.592ZM387.135 292.111V306.988L374.197 308.583V293.826L387.135 292.111ZM373.838 293.826V308.663H373.199V293.028L373.838 293.826ZM372.84 293.627V308.783H372.001V293.627H372.84ZM371.642 294.105V308.902L362.417 310.059V295.302L371.642 294.105ZM362.018 295.302V309.5H361.379V294.544L362.018 295.302ZM424.67 302.68V329.403L350.758 338.177V311.295L424.67 302.68ZM418.8 333.271L361.14 339.413V339.613V355.208L357.426 355.606V339.015L423.832 331.038V347.869L418.92 348.427V332.474C418.92 332.474 418.72 332.673 418.681 332.633L418.8 333.271ZM416.404 333.87L418.481 333.63L416.404 333.87ZM418.481 333.87V348.587L405.503 350.062V335.026L418.481 333.87ZM404.984 335.026V350.262H404.425V334.747L404.984 335.026ZM404.026 335.026V350.541H403.187V334.986L404.026 335.026ZM402.828 335.465V350.701L389.491 352.216V337.06L402.828 335.465ZM389.092 337.06V352.256H388.572V336.622L389.092 337.06ZM388.173 337.06V352.535H387.335V336.661L388.173 337.06ZM386.975 337.499V352.695L374.117 354.171V338.576L386.975 337.499ZM373.718 339.055V354.21H373.079V338.456L373.718 339.055ZM372.68 339.055V354.49H371.881V338.536L372.68 339.055ZM371.522 339.493V354.609L362.338 355.686V339.932L371.522 339.493ZM361.938 340.57V354.968H361.339V339.852L361.938 340.57ZM424.55 348.906V374.91L350.638 382.887V356.763L424.55 348.906ZM418.721 379.218L404.345 380.733L361.06 384.642V400.356L357.386 400.715V384.203L423.792 377.144V394.134L418.92 394.653V378.899C418.92 378.899 418.76 378.619 418.721 378.58V379.218ZM418.401 379.896V394.852L405.344 396.168V380.574L418.401 379.896ZM404.984 381.212V396.049H404.385V380.494L404.984 381.212ZM403.986 381.212V396.926H403.187V380.574L403.986 381.212ZM402.788 381.651V397.046L389.491 398.402V382.289L402.788 381.651ZM389.131 383.007V398.442H388.572V382.887L389.131 383.007ZM388.173 383.007V398.601H387.335V382.249L388.173 383.007ZM386.935 383.406V398.721L374.077 400.037V383.964L386.935 383.406ZM373.718 384.762V400.077H373.119V383.804L373.718 384.762ZM372.76 384.762V400.277H371.881V384.722L372.76 384.762ZM371.522 385.24V400.436L362.338 401.353V385.2L371.522 385.24ZM361.938 386.158V401.393H361.299V385.081L361.938 386.158ZM424.55 394.453V421.176L350.638 428.195V401.952L424.55 394.453ZM418.681 424.606L361.18 430.11V445.784L357.506 446.103V429.272L423.912 422.971V440.2L419.04 440.639V424.686C418.996 424.637 418.937 424.603 418.873 424.589C418.809 424.574 418.741 424.58 418.681 424.606ZM418.361 424.965V440.639L405.344 441.796V426.201L418.361 424.965ZM404.984 426.241V441.836H404.385V426.281L404.984 426.241ZM404.026 426.241V441.796H403.227V426.241H404.026ZM402.828 426.241V441.756L389.451 442.952V427.517L402.828 426.241ZM389.052 427.557V442.992H388.532V427.557H389.052ZM388.133 427.557V442.992H387.414V427.956L388.133 427.557ZM387.015 427.557V443.032L374.037 444.189V428.833L387.015 427.557ZM373.678 428.873V444.229H373.039V428.873H373.678ZM372.68 428.873V444.229H371.921V428.873H372.68ZM371.522 428.873V444.189L362.258 445.026V430.349L371.522 428.873ZM361.898 429.791V445.066H361.299V429.791H361.898ZM424.55 440.081V466.843L350.638 472.905V446.662L424.55 440.081ZM424.55 486.266V513.029L350.638 518.293V492.05L424.55 486.266ZM357.226 491.132V474.62L423.632 469.116V486.586L357.226 491.132ZM424.55 532.412V559.174L350.638 563.642V537.398L424.55 532.412ZM357.226 536.401V519.091L423.632 514.385V531.934L357.226 536.401ZM424.55 578.438V605.201L350.638 608.71V582.467L424.55 578.438ZM357.226 581.749V564.439L423.632 560.451V578.199L357.226 581.749ZM424.55 625.382V652.144L350.638 654.856V628.613L424.55 625.382ZM357.226 627.935V610.226L423.632 606.995V624.903L357.226 627.935ZM424.55 671.568V698.33L350.638 700.204V674.041L424.55 671.568ZM357.226 673.363V655.614L423.632 653.221V671.209L357.226 673.363ZM357.226 700.444H356.867L424.75 698.729L467.996 700.085L423.872 698.888L357.226 700.444ZM423.672 699.247V717.394L357.266 718.83V700.843L423.672 699.247ZM356.907 673.402H350.558V655.056L356.907 655.375V673.402ZM356.907 627.974L350.558 628.214V609.867L356.907 610.386V627.974ZM356.907 582.507L350.558 582.866V564.639L356.907 565.157V582.507ZM356.907 537.198L350.558 537.637V519.29L356.907 519.809V537.198ZM356.907 491.771L350.558 492.249V473.902L356.907 474.62V491.771ZM356.907 446.303L350.558 446.861V428.634L356.907 429.392V446.303ZM356.907 400.955L350.558 401.593V383.406L356.907 384.163V400.955ZM356.907 355.646L350.558 356.404V337.938L356.907 338.895V355.646ZM356.907 310.099L350.558 310.896V292.669L356.907 293.627V310.099ZM356.907 264.79L350.558 265.668V247.281L356.907 248.278V264.79ZM356.907 219.402L350.558 220.32V201.933L356.907 203.13V219.402ZM356.907 173.895L350.558 174.932V157.223L351.836 156.944L356.907 157.821V173.895ZM350.558 700.603L356.907 700.843V718.83H350.558V700.603ZM350.558 719.349L424.55 717.913V744.635L350.638 745.712L350.558 719.349ZM424.87 698.33V671.568L480.774 673.841V700.125L424.87 698.33ZM475.343 673.243L424.67 671.169H423.951V653.181L472.668 655.415H475.343V673.243ZM472.668 655.056L423.832 652.822L357.107 655.215H354.591L424.67 652.663L476.221 655.056H472.668ZM424.75 652.144V625.382L480.654 628.453V654.737L424.75 652.144ZM475.223 627.775L424.55 625.023H423.832V607.155L472.548 610.146H475.183L475.223 627.775ZM472.548 609.747L423.672 606.756L357.027 610.027L353.393 609.747L424.59 606.357L477.1 609.548L472.548 609.747ZM424.63 605.958V579.236L480.534 583.225V609.548L424.63 605.958ZM475.383 582.307L424.75 578.797H424.031V561.049L472.827 564.798H475.343L475.383 582.307ZM472.827 564.439L423.912 560.69L357.266 564.679L353.273 564.359L424.87 560.012L478.218 564L472.827 564.439ZM424.91 559.733V532.971L480.814 537.637V563.921L424.91 559.733ZM439.644 533.449L427.146 532.333V516.818L439.644 518.014V533.449ZM440.044 533.449V517.974H440.723V533.449H440.044ZM441.122 533.449V517.974H441.801V533.409L441.122 533.449ZM442.16 533.449V518.493L453.86 519.57V535.005L442.16 533.449ZM454.14 534.566V519.131H454.778V534.526L454.14 534.566ZM455.178 534.566V519.171H455.777V534.566H455.178ZM456.176 534.566V519.171L468.155 520.328V535.643L456.176 534.566ZM468.595 535.683V520.367H469.673V535.723L468.595 535.683ZM475.263 536.401L469.673 535.962V520.248V520.048L426.986 516.06V532.013L435.651 532.811L424.79 531.894H424.071V514.385L472.787 518.772H475.463L475.263 536.401ZM472.588 518.692L423.792 514.305L357.067 519.011L352.794 518.652L424.67 513.547L478.418 518.293L472.588 518.692ZM424.67 513.188V486.426L469.673 491.172L480.734 492.249V518.493L424.67 513.188ZM426.906 485.987V470.472L439.365 471.789V487.264L426.906 485.987ZM439.764 487.303V471.828H440.483V487.303H439.764ZM440.842 487.303V471.828H441.521V487.303H440.842ZM441.921 487.303V471.828L453.62 473.105V488.5L441.921 487.303ZM453.9 488.54V473.823H454.539V489.218L453.9 488.54ZM454.938 488.54V473.145H455.617V488.5L454.938 488.54ZM455.976 488.54V473.185L467.956 474.461V489.776L455.976 488.54ZM468.315 474.501H469.074V489.816H468.395L468.315 474.501ZM475.063 490.454L469.433 489.896V474.381L426.986 470.632V486.586H424.91H424.191V469.196L472.827 474.222H475.583L475.063 490.454ZM472.268 472.865L423.512 467.84L356.867 473.344L352.075 472.826L424.391 466.883L478.378 472.427L472.268 472.865ZM424.95 467.441V440.679L480.854 446.861V473.145L424.95 467.441ZM427.186 440.559V424.965L439.684 426.401V441.915L427.186 440.559ZM440.044 441.955V426.44H440.763V441.955H440.044ZM441.162 441.955V426.76H441.801V442.274L441.162 441.955ZM442.2 441.955V426.76L453.9 428.116V443.591L442.2 441.955ZM454.179 443.311V427.836H454.818V443.311H454.179ZM455.218 443.311V427.836H455.817V443.311H455.218ZM456.216 443.311V427.836L468.195 429.192V444.628L456.216 443.311ZM468.635 444.667V429.272H469.353V444.667H468.635ZM475.303 445.425L469.713 444.787V429.153L427.026 424.247V440.2L424.99 439.961H424.271V422.771L472.947 428.594H475.622L475.303 445.425ZM472.588 428.076L423.912 422.771L357.266 429.073L352.275 428.475L424.79 421.614L479.017 428.116L472.588 428.076ZM424.67 420.737V394.453L480.574 401.633V427.916L424.67 420.737ZM439.405 380.334V395.49L426.906 393.855V379.138L439.405 380.334ZM427.186 378.899L433.136 379.696L427.186 378.899ZM440.044 396.129V380.813H440.763V396.248L440.044 396.129ZM441.162 396.129V380.654H441.801V396.168L441.162 396.129ZM442.2 396.129V381.172L453.9 382.688V397.764L442.2 396.129ZM454.179 397.684V382.887H454.858V398.242L454.179 397.684ZM455.258 397.684V382.568H455.896V398.043L455.258 397.684ZM456.256 397.684V382.887L468.235 384.482V399.519L456.256 397.684ZM468.674 399.279V384.602H469.673V399.838L468.674 399.279ZM475.383 400.157L469.793 399.439V384.363V384.163L427.106 378.34V394.294L425.03 394.055H424.311V377.144L473.067 383.605L475.702 383.326L475.383 400.157ZM472.708 382.807L423.832 376.346L357.186 383.406L352.155 382.807L424.71 374.831L479.216 382.01L472.708 382.807ZM424.95 374.91V348.188L480.854 356.165V382.488L424.95 374.91ZM439.605 335.026V349.783L427.146 348.028V333.351L439.605 335.026ZM435.012 333.949L439.884 334.667L435.012 333.949ZM440.004 349.903V335.026H440.763V350.102L440.004 349.903ZM441.122 349.903V335.026H441.801V350.142L441.122 349.903ZM442.2 349.903V335.465L453.86 337.18V351.937L442.2 349.903ZM454.179 351.578V337.18H454.938V352.216L454.179 351.578ZM455.297 351.578V337.02H455.936V352.136L455.297 351.578ZM468.275 338.735V353.373L456.296 351.698V337.539L468.275 338.735ZM461.687 337.938L468.435 338.895L461.687 337.938ZM468.555 353.891V339.134H469.234V354.091L468.555 353.891ZM475.303 354.809L469.633 354.011V339.015L426.986 332.952V348.308L424.99 348.028H424.311V331.038L473.027 338.177L475.702 337.858L475.303 354.809ZM472.628 337.778L423.752 330.639L357.027 338.416L351.756 337.659L424.63 329.044L479.336 337.02L472.628 337.778ZM424.71 328.685V302.042L480.614 310.577V336.861L424.71 328.685ZM439.445 289.199V303.917L426.946 302.002V287.165L439.445 289.199ZM426.946 286.767L439.764 288.801L426.946 286.767ZM439.844 303.837V289.279H440.563V304.236L439.844 303.837ZM440.922 304.036V289.12H441.601V304.116L440.922 304.036ZM453.66 291.433V305.951L441.96 304.196V289.678L453.66 291.433ZM441.96 289.16L453.94 291.074L441.96 289.16ZM453.94 306.031V291.553H454.659V306.429L453.94 306.031ZM455.018 306.031V291.393H455.657V306.31L455.018 306.031ZM468.036 293.627V308.304L456.056 306.469V291.951L468.036 293.627ZM456.056 291.273L468.355 293.228L456.056 291.273ZM468.435 308.065V293.906H469.154V308.663L468.435 308.065ZM475.103 309.102L469.513 308.264V293.467L426.866 286.607V301.922L424.87 301.643H424.191V285.131L472.867 293.108L475.503 292.789L475.103 309.102ZM472.428 292.31L423.592 284.334L356.867 292.909L351.556 292.151L424.75 283.177L479.496 291.991L472.428 292.31ZM424.511 282.379V255.896L480.414 265.309V291.632L424.511 282.379ZM439.285 243.253V257.731L426.747 255.617V241.339L439.285 243.253ZM426.747 240.661L439.445 242.934L426.747 240.661ZM439.644 257.811V243.492H440.323V258.329L439.644 257.811ZM440.723 257.811V243.293H441.401V258.17L440.723 257.811ZM453.7 246.045V260.403L442.04 258.449V243.971L453.7 246.045ZM442.519 243.652L453.98 245.686L442.519 243.652ZM454.1 260.483V246.045H454.778V260.762L454.1 260.483ZM455.178 260.483V245.726H455.817V260.483H455.178ZM456.176 260.682V246.364L468.155 248.518V262.836L456.176 260.682ZM468.555 262.756V248.518H469.273V263.235L468.555 262.756ZM475.303 263.873L469.673 263.235V248.239C469.69 248.208 469.7 248.174 469.7 248.139C469.7 248.104 469.69 248.069 469.673 248.039L427.066 240.501V255.657L425.03 255.298H424.351V239.305L472.987 247.88L475.702 247.561L475.303 263.873ZM472.548 247.122L423.752 238.547L357.067 247.88L351.756 247.281L424.75 236.951L479.576 246.603L472.548 247.122ZM424.63 236.313V209.711L480.534 220.001V246.284L424.63 236.313ZM439.325 197.626V211.904L426.866 209.591V195.432L439.325 197.626ZM426.866 194.874L439.644 197.267L426.866 194.874ZM439.724 211.944V197.785H440.443V212.423L439.724 211.944ZM440.842 211.944V197.626H441.481V212.343L440.842 211.944ZM453.58 199.979V214.138L441.881 211.984V198.264L453.58 199.979ZM441.881 197.386L453.86 199.66H453.62L441.881 197.386ZM453.86 214.217V200.497L454.539 200.298V214.856L453.86 214.217ZM454.898 214.217V200.298H455.537V214.935L454.898 214.217ZM467.916 202.252V216.411L455.936 214.217V200.896L467.916 202.252ZM455.936 199.62L468.235 201.933L455.936 199.62ZM468.315 216.491V203.17H468.994V217.687L468.315 216.491ZM474.984 217.727L469.393 216.69V202.771C469.418 202.707 469.418 202.636 469.393 202.571L454.938 199.859L426.747 194.595V209.511L424.75 209.152H424.071V193.119L472.867 202.372L475.423 202.053L474.984 217.727ZM472.388 201.096L423.472 191.803L356.787 201.893L351.197 200.856L424.351 189.649L479.296 200.138L472.388 201.096ZM424.471 189.13V163.525L480.374 174.613V200.936L424.471 189.13ZM423.472 145.617L356.707 156.386L351.157 155.428L424.311 143.463L481.692 155.428L475.143 156.426L423.472 145.617ZM425.269 35.8959H427.186V74.3043L425.269 73.8655V35.8959ZM423.472 73.7459L477.659 86.2296V128.108L424.79 116.861L423.512 117.1L423.472 73.7459ZM424.59 117.14V143.862L350.638 156.106V129.783L424.59 117.14ZM412.611 0.359243H415.726V74.8626L412.611 75.421V0.359243ZM423.193 73.7459V117.18L363.296 127.39V84.7938L423.193 73.7459ZM341.294 75.7401L364.174 80.8054V84.0758L362.977 84.2753V86.8677L341.454 90.8561L341.294 75.7401ZM362.697 87.7452V127.629H361.619V117.259L347.563 119.772V119.971V134.29L350.438 133.771V144.101L339.617 145.976V91.7336L362.697 87.7452ZM348.082 120.33V133.891H347.563V120.051L348.082 120.33ZM275.327 797.681V100.747L332.11 90.4972V475.737V797.681H275.327ZM339.217 797.681H332.749V424.446V90.4972L339.337 91.8134L339.217 797.681ZM332.349 90.0585L310.347 94.0469V81.5632L340.775 75.78V91.0556L339.257 91.3347L332.349 90.0585ZM356.867 797.681H339.457V146.335L350.278 144.46V156.426L349.28 156.665V733.109C349.28 733.162 349.301 733.212 349.339 733.25C349.376 733.287 349.427 733.308 349.48 733.308H350.438V745.832H356.867V797.681ZM423.632 797.681H357.226V745.832L423.632 744.875V797.681ZM475.543 797.681H424.031V744.914H424.75L475.463 745.832L475.543 797.681ZM483.09 797.681H475.902V745.832H480.973V719.149H480.774H475.702V701.002H480.774V673.642L480.574 673.442H475.503V655.534L480.574 655.335V628.653L475.423 628.373V610.545L480.534 610.346V583.663V583.464L475.383 583.105V565.436L480.534 565.117V538.435V538.235L475.423 537.797V519.29L480.534 518.932V492.249L475.463 491.771V474.301L480.534 473.902V446.702L475.423 446.143V428.913L480.534 428.514V401.832L475.423 401.154V383.286L480.534 382.767V355.886L475.822 354.968V337.938L480.933 337.3V310.418L475.822 309.66V292.629L480.933 292.031V265.149L475.822 264.272V247.281L480.933 246.683V219.841L475.822 218.924V202.172L480.933 201.494V174.413L475.822 173.376V157.542L483.01 156.465L483.09 797.681ZM502.257 797.681H483.489V156.465L502.257 160.454V797.681ZM544.264 797.681H502.576V746.35H504.533L544.184 747.028L544.264 797.681ZM556.443 797.681H544.464V747.028H556.443V797.681ZM565.667 797.681H556.723V747.228H558.24V721.144C558.258 721.113 558.267 721.079 558.267 721.044C558.267 721.009 558.258 720.974 558.24 720.944H556.843V703.156H558.24V677.072H556.843V659.363H558.24V633.319V633.12H556.803V615.491H558.24V589.407C558.24 589.407 558.24 589.407 558.24 589.207H556.803V570.342H558.24V544.258H556.763V526.589H558.24V500.505H556.803V482.956H558.24V456.912H556.803V439.403H558.24V413.358H556.803V393.257H558.24V366.933L556.803 366.734V348.946H558.24V322.543C558.265 322.478 558.265 322.407 558.24 322.343H556.763V304.754H558.2V278.311L556.723 278.072V260.443H558.16V234L556.683 233.721V216.212L558.12 216.012V196.868L562.114 197.825L618.736 189.489V204.765L615.821 205.204V190.766L569.022 197.506C568.997 197.57 568.997 197.641 569.022 197.705V211.904L558.919 213.34V213.539V238.587H559.159L565.268 239.703L619.135 232.444V247.76L616.22 248.159V233.801L585.314 237.789L569.341 239.903C569.317 239.967 569.317 240.038 569.341 240.102V254.381L559.238 255.697V280.744L565.348 281.901L619.135 275.2V290.755L616.22 291.114V276.756L600.887 278.67L569.421 282.658V297.096L559.318 298.333V323.46L565.388 324.497L619.255 318.275V333.989L616.34 334.308V319.79L569.541 325.055V339.693L559.438 340.809V365.857L565.508 366.774L619.335 361.11V377.064L616.46 377.343V362.945L569.701 367.811H569.501V382.488L559.398 383.525V408.572L565.468 409.33L619.295 404.185V420.139L616.42 420.418V405.461L569.661 409.849H569.461V424.646L559.358 425.563V450.61H559.678L565.747 451.368L619.575 446.861V462.815L616.66 463.054V448.137L569.9 452.126H569.701V466.883L593.26 465.048L559.398 467.8V492.847H559.638L565.667 493.446L619.535 489.457V505.77L559.318 509.758C559.294 509.822 559.294 509.893 559.318 509.958V535.005H559.598L565.588 535.603L619.495 532.253V548.605L559.318 552.195H559.119V577.202H559.558L565.508 577.76L619.415 574.809V591.401L559.238 594.352L559.039 594.552V619.599H559.438L565.308 620.038L619.215 617.844V634.436L559.039 636.789H558.839V661.836H559.598L565.268 662.075L619.175 660.36V677.231L558.999 678.946C558.999 678.946 558.799 678.946 558.799 679.146V704.193H559.758L565.228 704.392L619.135 703.236V720.107L558.959 721.343L558.759 721.542V746.59H565.388L565.667 797.681ZM585.633 451.807V466.085H585.473V451.687L585.633 451.807ZM584.755 451.807V466.285H583.996V451.847L584.755 451.807ZM583.597 452.166V466.364L570.14 467.401V453.322L583.597 452.166ZM569.74 453.282V467.441H569.501V453.123L569.74 453.282ZM619.135 797.681H565.947V749.342L619.135 748.544V797.681ZM671.725 797.681H619.535V748.544H620.693L671.725 749.541V797.681ZM680.27 797.681H672.084V749.501H679.072V724.653H678.872L671.765 724.454V707.782L678.753 707.503V682.616H678.553L671.445 682.297V665.745L678.433 665.426V640.578H678.234L671.126 640.179V623.906L678.114 623.547V598.7L677.914 598.5L670.806 598.022V581.829L677.794 581.35V556.502L677.595 556.303L670.487 555.705V539.751L677.475 539.272V514.425L677.275 514.225L670.167 513.507V497.554L677.155 497.035V472.187H676.956L669.848 471.39V455.675L676.836 455.157V430.269L669.688 429.392V413.757L676.796 413.119V385.559L669.648 384.522V369.007L676.756 368.329V343.202L669.568 342.086V326.77L676.756 325.933V300.806L669.608 299.609V284.493L676.756 283.656V258.529L669.608 257.173V242.176L676.756 241.219V216.092L669.608 214.696V199.819L676.756 198.822V178.88H677.555L680.27 797.681ZM686.499 797.681H680.669V179L686.499 178.202V797.681ZM731.382 797.681H686.899V178.202L731.382 187.455V797.681ZM776.784 303.398C776.519 303.437 776.25 303.437 775.985 303.398H775.306C774.057 302.968 772.986 302.135 772.263 301.03C771.54 299.926 771.206 298.612 771.313 297.296C771.243 295.633 771.737 293.996 772.715 292.649C773.694 291.302 775.1 290.326 776.704 289.877H778.022C779.266 290.278 780.337 291.087 781.062 292.174C781.787 293.26 782.123 294.559 782.015 295.86C782.137 297.525 781.685 299.181 780.733 300.552C779.781 301.924 778.387 302.928 776.784 303.398ZM777.303 303.677C778.886 303.107 780.247 302.051 781.194 300.662C782.14 299.272 782.623 297.62 782.574 295.94C782.605 294.848 782.375 293.765 781.903 292.78C781.431 291.794 780.73 290.936 779.859 290.276C780.96 290.785 781.883 291.612 782.51 292.65C783.136 293.687 783.437 294.889 783.372 296.099C783.459 297.78 782.968 299.441 781.98 300.805C780.993 302.168 779.568 303.154 777.942 303.598L777.303 303.677ZM778.541 303.677V318.315H777.782V303.996H778.022L778.541 303.677ZM761.929 305.073C761.976 306.195 761.654 307.301 761.012 308.223C760.37 309.145 759.444 309.831 758.375 310.178C759.341 309.697 760.149 308.949 760.701 308.023C761.253 307.096 761.527 306.031 761.49 304.954C761.505 304.264 761.379 303.58 761.118 302.941C760.857 302.303 760.467 301.726 759.973 301.244C760.631 301.669 761.161 302.265 761.505 302.967C761.85 303.67 761.997 304.453 761.929 305.233V305.073ZM759.014 310.378V320.429H758.375V310.737L759.014 310.378ZM757.178 296.538C756.846 296.577 756.511 296.577 756.179 296.538H755.78H755.301C753.695 295.958 752.33 294.857 751.425 293.411C750.52 291.965 750.127 290.257 750.309 288.561C750.24 286.457 750.878 284.39 752.124 282.691C753.369 280.992 755.148 279.758 757.178 279.189H757.896H758.336H758.855C760.467 279.705 761.857 280.75 762.799 282.155C763.741 283.559 764.181 285.241 764.046 286.926C764.149 289.066 763.527 291.178 762.281 292.922C761.035 294.666 759.237 295.94 757.178 296.538ZM757.497 296.857C759.608 296.211 761.442 294.879 762.708 293.072C763.974 291.266 764.6 289.088 764.485 286.886C764.551 285.426 764.241 283.973 763.583 282.667C762.926 281.361 761.944 280.246 760.732 279.428C762.25 280.038 763.532 281.119 764.387 282.513C765.243 283.906 765.627 285.537 765.483 287.165C765.608 289.32 764.991 291.453 763.734 293.209C762.477 294.965 760.657 296.238 758.575 296.817C758.18 296.891 757.776 296.904 757.377 296.857H757.497ZM759.134 296.857V300.527H758.535V297.096H758.815L759.134 296.857ZM757.537 310.099H756.539C755.692 309.799 754.971 309.222 754.493 308.462C754.014 307.702 753.807 306.803 753.903 305.911C753.853 304.766 754.192 303.637 754.867 302.71C755.541 301.783 756.511 301.111 757.617 300.806H758.495C759.322 301.083 760.035 301.623 760.525 302.344C761.015 303.064 761.256 303.924 761.211 304.794C761.345 306.009 761.034 307.231 760.337 308.235C759.64 309.239 758.603 309.958 757.417 310.258L757.537 310.099ZM737.571 797.482H731.861V368.21L737.571 369.127V797.482ZM796.55 797.482H737.851V660.201L796.43 658.326L796.55 797.482ZM796.55 657.888L737.971 659.762V548.087L796.55 544.617V657.888ZM796.55 544.098L737.971 547.528V435.574L796.43 430.748L796.55 544.098ZM796.55 430.15L737.971 435.175V368.968C737.995 368.903 737.995 368.832 737.971 368.768L732.021 367.811V323.938L796.709 316.839L796.55 430.15ZM844.467 797.601H796.789V735.941L844.228 737.057L844.467 797.601ZM844.467 736.619L797.029 735.502V672.764L844.467 674.958V736.619ZM844.467 674.519L797.029 672.326V609.548L844.467 612.779V674.519ZM844.467 612.34L797.029 609.109V546.412L844.467 550.679V612.34ZM844.467 550.241L797.029 545.973V483.195L844.467 488.54V550.241ZM844.467 488.101L797.029 482.757V420.019L844.467 426.401V488.101ZM844.467 426.002L797.029 419.62V356.883L844.467 364.301V426.002ZM854.21 797.681H844.587V737.057L854.21 737.297V797.681ZM854.21 736.938L844.587 736.698V674.958L854.21 675.397V736.938ZM854.21 675.038L844.587 674.599V612.779L854.21 613.457V675.038ZM854.21 613.098L844.587 612.46V550.719L854.21 551.597V613.098ZM854.21 551.238L844.587 550.36V488.58L854.21 489.657V551.238ZM854.21 489.298L844.587 488.221V426.48L854.21 427.757V489.298ZM854.21 427.398L844.587 426.121V364.341L854.21 365.857V427.398ZM899.892 797.681H854.61V737.297L899.892 738.334V797.681ZM899.892 737.855L854.61 736.778V675.437L899.892 677.51V737.855ZM899.892 676.992L854.61 674.918V613.497L899.892 616.568V676.992ZM899.892 616.049L854.61 612.978V551.636L899.892 555.625V616.049ZM899.892 555.186L854.61 551.198V489.697L899.892 494.802V555.186ZM899.892 494.283L854.61 489.178V427.797L899.892 433.899V494.283ZM899.892 433.38L854.61 427.318V365.936L899.892 372.996V433.38ZM899.892 372.517L796.789 356.364V316.919L899.892 334.468V372.517ZM955.796 797.522H900.251V529.182L955.835 525.752L955.796 797.522ZM1062.53 797.522H956.235V525.752L1062.57 536.8L1062.53 797.522Z" fill="white" fill-opacity="0.2"/>
</svg>
