<svg width="48" height="48" viewBox="0 0 48 48" fill="none" xmlns="http://www.w3.org/2000/svg">
<g filter="url(#filter0_d_124_1)">
<rect width="48" height="48" rx="24" fill="url(#paint0_linear_124_1)"/>
</g>
<path d="M35.7625 18.8125C35.7625 19.075 35.7625 19.3375 35.7625 19.5625C35.7625 27.325 29.8375 36.2875 19.0375 36.2875C15.7 36.2875 12.625 35.3125 10 33.6625C10.45 33.7 10.9375 33.7375 11.3875 33.7375C14.125 33.7375 16.675 32.8 18.7 31.225C16.1125 31.1875 13.9375 29.4625 13.225 27.1375C13.6 27.2125 13.9375 27.25 14.35 27.25C14.875 27.25 15.4 27.175 15.8875 27.025C13.1875 26.5 11.1625 24.1375 11.1625 21.2875C11.1625 21.25 11.1625 21.25 11.1625 21.2125C11.95 21.6625 12.85 21.925 13.825 21.9625C12.25 20.9125 11.2 19.1125 11.2 17.05C11.2 15.9625 11.5 14.95 11.9875 14.0875C14.875 17.65 19.225 19.975 24.1 20.2375C23.9875 19.825 23.95 19.3375 23.95 18.8875C23.95 15.625 26.575 13 29.8375 13C31.525 13 33.0625 13.7125 34.1125 14.8375C35.4625 14.575 36.7 14.0875 37.8625 13.4125C37.4125 14.8 36.475 15.925 35.275 16.675C36.475 16.525 37.6 16.225 38.65 15.7375C37.9 16.9375 36.925 17.9875 35.7625 18.8125Z" fill="white"/>
<defs>
<filter id="filter0_d_124_1" x="-12" y="-2" width="72" height="72" filterUnits="userSpaceOnUse" color-interpolation-filters="sRGB">
<feFlood flood-opacity="0" result="BackgroundImageFix"/>
<feColorMatrix in="SourceAlpha" type="matrix" values="0 0 0 0 0 0 0 0 0 0 0 0 0 0 0 0 0 0 127 0" result="hardAlpha"/>
<feOffset dy="10"/>
<feGaussianBlur stdDeviation="6"/>
<feColorMatrix type="matrix" values="0 0 0 0 0.282353 0 0 0 0 0.509804 0 0 0 0 0.356863 0 0 0 0.25 0"/>
<feBlend mode="normal" in2="BackgroundImageFix" result="effect1_dropShadow_124_1"/>
<feBlend mode="normal" in="SourceGraphic" in2="effect1_dropShadow_124_1" result="shape"/>
</filter>
<linearGradient id="paint0_linear_124_1" x1="0" y1="24" x2="48" y2="24" gradientUnits="userSpaceOnUse">
<stop stop-color="#48825B"/>
<stop offset="1" stop-color="#93C993"/>
</linearGradient>
</defs>
</svg>
